<svg width="57" height="69" viewBox="0 0 57 69" fill="none" xmlns="http://www.w3.org/2000/svg">
<path d="M5.88589 63.4863H7.88594L7.74982 64.145H5.87052C5.47314 64.145 5.24262 64.3052 5.17456 64.6258C5.16798 64.6609 5.16358 64.6916 5.16358 64.7224C5.16358 64.9243 5.2997 65.0253 5.57194 65.0253H6.57526C6.92873 65.0253 7.18559 65.0824 7.34586 65.1944C7.49734 65.3042 7.57418 65.4732 7.57418 65.7015C7.57418 65.8069 7.55662 65.9277 7.52369 66.0638C7.44026 66.4326 7.29097 66.7027 7.07582 66.8717C6.83432 67.0649 6.48525 67.1637 6.0264 67.1637H4L4.13612 66.5051H6.04176C6.27448 66.5051 6.44133 66.4633 6.54452 66.3777C6.63234 66.3097 6.69162 66.1911 6.72675 66.0243C6.73553 65.9825 6.74211 65.9474 6.74211 65.9167C6.74211 65.7498 6.58404 65.6664 6.26789 65.6664H5.36996C4.68498 65.6664 4.34249 65.4205 4.34249 64.9309C4.34249 64.8321 4.35566 64.7224 4.38201 64.5994C4.46543 64.235 4.61692 63.9627 4.83646 63.7871C5.08455 63.5851 5.43363 63.4863 5.88589 63.4863Z" fill="#939598"/>
<path d="M8.54631 67.1615H7.86133L8.62754 63.4863H9.31252L9.11054 64.4677H9.74063C10.0458 64.4677 10.2719 64.5094 10.4168 64.595C10.5947 64.6982 10.6825 64.8738 10.6825 65.1263C10.6825 65.2251 10.6715 65.3349 10.6473 65.4534L10.2895 67.1615H9.57817L9.91627 65.5347C9.93383 65.4534 9.94261 65.3876 9.94261 65.3349C9.94261 65.1549 9.81088 65.0649 9.54963 65.0649H8.9854L8.54631 67.1615Z" fill="#939598"/>
<path d="M11.5 64.4677H12.2245L11.6603 67.1615H10.9336L11.5 64.4677ZM11.702 63.4863H12.4287L12.2926 64.1559H11.5659L11.702 63.4863Z" fill="#939598"/>
<path d="M13.0766 68.1286H12.3828L13.149 64.4688H14.4948C14.8351 64.4688 15.0964 64.5522 15.2786 64.719C15.4608 64.8859 15.553 65.1252 15.553 65.4347C15.553 65.5599 15.5377 65.6982 15.5069 65.8431C15.3225 66.7213 14.7824 67.1626 13.8889 67.1626H13.2786L13.0766 68.1286ZM14.7693 65.8299C14.7934 65.7114 14.8044 65.6082 14.8044 65.5182C14.8044 65.314 14.7297 65.1801 14.5827 65.1164C14.4751 65.0681 14.2731 65.0483 13.9789 65.0549H13.722L13.3993 66.583H13.6606C14.0206 66.583 14.2621 66.55 14.3873 66.4864C14.5717 66.392 14.699 66.1746 14.7693 65.8299Z" fill="#939598"/>
<path d="M16.5221 68.1286H15.8262L16.5924 64.4688H17.9382C18.2785 64.4688 18.5375 64.5522 18.722 64.719C18.9042 64.8859 18.9964 65.1252 18.9964 65.4347C18.9964 65.5599 18.981 65.6982 18.9525 65.8431C18.7681 66.7213 18.228 67.1626 17.3344 67.1626H16.7241L16.5221 68.1286ZM18.217 65.8299C18.2412 65.7114 18.2521 65.6082 18.2521 65.5182C18.2521 65.314 18.1775 65.1801 18.0304 65.1164C17.9228 65.0681 17.7208 65.0483 17.4267 65.0549H17.1698L16.8471 66.583H17.1083C17.4684 66.583 17.7099 66.55 17.835 66.4864C18.0172 66.392 18.1446 66.1746 18.217 65.8299Z" fill="#939598"/>
<path d="M19.8335 64.4677H20.5602L19.996 67.1615H19.2715L19.8335 64.4677ZM20.0355 63.4863H20.76L20.6239 64.1559H19.8972L20.0355 63.4863Z" fill="#939598"/>
<path d="M21.5124 67.1626H20.8164L21.3806 64.4688H22.6957C23.025 64.4688 23.2643 64.5192 23.4158 64.6202C23.5673 64.7212 23.6419 64.8881 23.6419 65.1186C23.6419 65.2174 23.6288 65.3294 23.6024 65.4567L23.2446 67.1648H22.5332L22.8713 65.5489C22.8955 65.4325 22.9065 65.3469 22.9065 65.292C22.9065 65.2042 22.8779 65.1428 22.823 65.112C22.7682 65.0813 22.665 65.0659 22.5135 65.0659H21.9493L21.5124 67.1626Z" fill="#939598"/>
<path d="M25.8744 64.4688H27.1544L26.6099 67.0616C26.5287 67.4458 26.3838 67.7246 26.1708 67.8958C25.9798 68.0517 25.7142 68.1308 25.3804 68.1308H24.0039L24.1203 67.5841H25.3695C25.6527 67.5841 25.8217 67.4436 25.8788 67.1648H25.3102C24.5418 67.1648 24.1576 66.8486 24.1576 66.2185C24.1576 66.0956 24.173 65.9638 24.2037 65.8255C24.2849 65.4325 24.4474 65.1208 24.6933 64.8903C24.9875 64.6071 25.3804 64.4688 25.8744 64.4688ZM25.6329 66.6049H25.9952L26.3223 65.0461C26.2213 65.0198 26.1137 65.0044 25.9996 65.0044C25.7515 65.0044 25.5363 65.0659 25.3541 65.1889C25.1324 65.336 24.9919 65.5533 24.9304 65.8431C24.9106 65.9397 24.8996 66.0231 24.8996 66.0978C24.8996 66.2866 24.9633 66.4183 25.0906 66.4973C25.207 66.5698 25.387 66.6049 25.6329 66.6049Z" fill="#939598"/>
<path d="M28.0524 65.3842H29.2819L29.5431 64.1152H30.0481L29.7846 65.3842H31.0053L30.8999 65.8848H29.6814L29.4136 67.1625H28.9108L29.1787 65.8848H27.9492L28.0524 65.3842Z" fill="#939598"/>
<path d="M34.1955 66.5536L34.0704 67.1617H33.1022C32.6741 67.1617 32.3667 67.1091 32.1801 67.0037C31.9408 66.8676 31.8223 66.6151 31.8223 66.2462C31.8223 66.0838 31.8442 65.8928 31.8881 65.6732L32.347 63.4844H33.1044L32.6807 65.5042C32.6192 65.7962 32.5907 65.996 32.5907 66.1013C32.5907 66.2616 32.6412 66.3758 32.7444 66.446C32.8475 66.5163 33.0276 66.5514 33.291 66.5514H34.1955V66.5536Z" fill="#939598"/>
<path d="M35.7368 67.2179C35.3263 67.2179 35.0233 67.1081 34.8235 66.8864C34.6633 66.7063 34.582 66.4648 34.582 66.1597C34.582 66.0477 34.593 65.9314 34.6172 65.8128C34.694 65.4374 34.8696 65.1234 35.1419 64.8666C35.4602 64.5636 35.8532 64.4121 36.3208 64.4121C36.6501 64.4121 36.918 64.4955 37.1265 64.6624C37.3593 64.8468 37.4734 65.1103 37.4734 65.4549C37.4734 65.5669 37.4603 65.6877 37.4339 65.8128C37.3505 66.219 37.1595 66.5505 36.8653 66.8095C36.5535 67.0796 36.1781 67.2179 35.7368 67.2179ZM35.8466 66.6339C36.0179 66.6339 36.1759 66.5812 36.3208 66.4758C36.5118 66.3331 36.6392 66.1136 36.7028 65.8216C36.7204 65.7294 36.7292 65.6437 36.7292 65.5669C36.7292 65.3825 36.6809 65.2442 36.5843 65.1476C36.4877 65.0532 36.3625 65.0049 36.2045 65.0049C36.0025 65.0049 35.8225 65.0773 35.6644 65.22C35.5063 65.3627 35.4009 65.5647 35.346 65.8238C35.3285 65.905 35.3197 65.984 35.3197 66.0587C35.3197 66.2365 35.3658 66.377 35.4602 66.4802C35.559 66.5812 35.6863 66.6339 35.8466 66.6339Z" fill="#939598"/>
<path d="M39.7397 64.4688H41.0196L40.4751 67.0616C40.3939 67.4458 40.249 67.7246 40.036 67.8958C39.845 68.0517 39.5816 68.1308 39.2457 68.1308H37.8691L37.9855 67.5841H39.2347C39.5157 67.5841 39.687 67.4436 39.7441 67.1648H39.1732C38.4048 67.1648 38.0206 66.8486 38.0206 66.2185C38.0206 66.0956 38.036 65.9638 38.0667 65.8255C38.148 65.4325 38.3104 65.1208 38.5563 64.8903C38.8505 64.6071 39.2457 64.4688 39.7397 64.4688ZM39.496 66.6049H39.8582L40.1853 65.0461C40.0843 65.0198 39.9768 65.0044 39.8626 65.0044C39.6145 65.0044 39.3994 65.0659 39.2171 65.1889C38.9954 65.336 38.8549 65.5533 38.7934 65.8431C38.7737 65.9397 38.7627 66.0231 38.7627 66.0978C38.7627 66.2866 38.8264 66.4183 38.9537 66.4973C39.0722 66.5698 39.2523 66.6049 39.496 66.6049Z" fill="#939598"/>
<path d="M41.7283 64.4677H42.4528L41.8886 67.1615H41.1641L41.7283 64.4677ZM41.9303 63.4863H42.657L42.5208 64.1559H41.7964L41.9303 63.4863Z" fill="#939598"/>
<path d="M44.4702 67.1626H42.6699L42.7863 66.6049H44.2616C44.5097 66.6049 44.6524 66.5149 44.6897 66.3349C44.6963 66.3107 44.7007 66.291 44.7007 66.2734C44.7007 66.1395 44.5909 66.0736 44.3736 66.0736H43.7633C43.4954 66.0736 43.3066 66.0495 43.199 66.0012C43.0475 65.9331 42.9729 65.797 42.9729 65.5928C42.9729 65.5138 42.9817 65.426 43.0036 65.3272C43.1244 64.7542 43.4976 64.4688 44.1233 64.4688H45.625L45.5086 65.0264H44.2682C44.0904 65.0264 43.9652 65.0418 43.895 65.0725C43.8116 65.1098 43.7567 65.1823 43.7325 65.292C43.7303 65.3118 43.7281 65.3316 43.7281 65.3469C43.7281 65.4589 43.8247 65.516 44.0157 65.516H44.6546C45.1552 65.516 45.4055 65.7026 45.4055 66.0736C45.4055 66.1351 45.3989 66.201 45.3857 66.2734C45.3396 66.5303 45.2298 66.741 45.0586 66.9101C44.8873 67.0791 44.6919 67.1626 44.4702 67.1626Z" fill="#939598"/>
<path d="M46.4896 65.0036H46L46.1164 64.4657H46.6059L46.8079 63.4844H47.5083L47.3063 64.4657H48.0571L47.9408 65.0036H47.1899L46.9638 66.0926C46.944 66.1804 46.9331 66.2572 46.9331 66.3165C46.9331 66.4394 46.9814 66.5229 47.0736 66.5668C47.1548 66.6041 47.3063 66.6217 47.5324 66.6217H47.6027L47.4929 67.1595H46.8518C46.4083 67.1595 46.1866 66.962 46.1866 66.5668C46.1866 66.4921 46.1954 66.4109 46.2108 66.3209L46.4896 65.0036Z" fill="#939598"/>
<path d="M48.5877 64.4677H49.3122L48.7479 67.1615H48.0234L48.5877 64.4677ZM48.7896 63.4863H49.5163L49.3802 64.1559H48.6557L48.7896 63.4863Z" fill="#939598"/>
<path d="M51.1313 66.5852H51.8668L51.7461 67.1626H50.8042C50.027 67.1626 49.6406 66.8398 49.6406 66.1966C49.6406 66.0802 49.656 65.9551 49.6867 65.8233C49.8755 64.921 50.4354 64.4688 51.3706 64.4688H52.3125L52.1917 65.0571H51.4563C51.1665 65.0571 50.9535 65.0988 50.8174 65.1801C50.6242 65.292 50.4969 65.5072 50.4288 65.8233C50.4046 65.9243 50.3937 66.0121 50.3937 66.0846C50.3915 66.4183 50.6374 66.5852 51.1313 66.5852Z" fill="#939598"/>
<path d="M54.1496 67.1626H52.3516L52.4679 66.6049H53.9455C54.1935 66.6049 54.3362 66.5149 54.3736 66.3349C54.3801 66.3107 54.3823 66.291 54.3823 66.2734C54.3823 66.1395 54.2726 66.0736 54.0552 66.0736H53.4449C53.177 66.0736 52.9882 66.0495 52.8807 66.0012C52.7292 65.9331 52.6545 65.797 52.6545 65.5928C52.6545 65.5138 52.6633 65.426 52.6853 65.3272C52.806 64.7542 53.1792 64.4688 53.8027 64.4688H55.3044L55.1881 65.0264H53.9476C53.7698 65.0264 53.6447 65.0418 53.5744 65.0725C53.491 65.1098 53.4361 65.1823 53.4142 65.292C53.4098 65.3118 53.4098 65.3316 53.4098 65.3469C53.4098 65.4589 53.5064 65.516 53.6974 65.516H54.3384C54.839 65.516 55.0893 65.7026 55.0893 66.0736C55.0893 66.1351 55.0827 66.201 55.0695 66.2734C55.0212 66.5303 54.9136 66.741 54.7424 66.9101C54.5668 67.0791 54.3714 67.1626 54.1496 67.1626Z" fill="#939598"/>
<path d="M11.9135 60.7129H3L6.42928 44.4863H14.7588C16.3527 44.4863 17.5207 44.6444 18.2561 44.9605C19.3846 45.4413 19.9488 46.3371 19.9488 47.6456C19.9488 48.0386 19.8961 48.4733 19.7908 48.9541C19.4746 50.4887 18.4208 51.7071 16.6315 52.6095C17.8346 53.2418 18.4362 54.1375 18.4362 55.2945C18.4362 55.5645 18.3989 55.8587 18.3242 56.1749C17.9642 57.9049 17.1738 59.1321 15.9553 59.8544C14.9915 60.4253 13.6435 60.7129 11.9135 60.7129ZM7.82998 54.008L7.01766 57.8456H12.0277C13.5316 57.8456 14.4119 57.2133 14.6688 55.9487C14.7149 55.7534 14.7368 55.5645 14.7368 55.3845C14.7368 54.4668 14.1046 54.008 12.84 54.008H7.82998ZM14.1946 47.3953H9.22848L8.43812 51.1407H13.4042C14.9081 51.1407 15.7885 50.5238 16.0453 49.29C16.0914 49.0946 16.1134 48.9145 16.1134 48.7477C16.1112 47.8476 15.4723 47.3953 14.1946 47.3953Z" fill="#262262"/>
<path d="M24.8695 60.9614C23.0341 60.9614 21.6729 60.4718 20.7838 59.4948C20.0615 58.6979 19.6992 57.6287 19.6992 56.2895C19.6992 55.7933 19.7519 55.2818 19.8573 54.7549C20.2042 53.0995 20.9857 51.7076 22.2042 50.5791C23.6335 49.2399 25.3942 48.5703 27.4843 48.5703C28.9596 48.5703 30.1627 48.9391 31.0958 49.6768C32.1342 50.4891 32.6523 51.6549 32.6523 53.1742C32.6523 53.6703 32.5909 54.1972 32.4723 54.7549C32.0969 56.5464 31.2451 58.0129 29.9212 59.1567C28.5271 60.3599 26.841 60.9614 24.8695 60.9614ZM25.3657 58.3883C26.1341 58.3883 26.841 58.1556 27.4865 57.688C28.3449 57.0557 28.9157 56.0941 29.2011 54.7988C29.2757 54.3926 29.3131 54.0172 29.3131 53.6703C29.3131 52.858 29.0979 52.2411 28.6698 51.8196C28.2417 51.398 27.6731 51.1873 26.9661 51.1873C26.0638 51.1873 25.2581 51.5034 24.5511 52.1357C23.8442 52.768 23.37 53.655 23.1285 54.7988C23.0539 55.1588 23.0165 55.5057 23.0165 55.8372C23.0165 56.6188 23.2273 57.2401 23.6488 57.699C24.0725 58.1578 24.6456 58.3883 25.3657 58.3883Z" fill="#262262"/>
<path d="M40.5085 51.2773H35.2504L35.7685 48.8184H42.2012C44.9389 48.8184 46.3089 49.8414 46.3089 51.8876C46.3089 52.3091 46.2562 52.768 46.1508 53.2641L44.5701 60.7111H36.1527C35.1889 60.7111 34.4403 60.4828 33.9068 60.0217C33.3733 59.5629 33.1055 58.9196 33.1055 58.0919C33.1055 57.8065 33.1362 57.5057 33.1955 57.1896C33.5116 55.745 34.1966 54.7285 35.2482 54.1423C36.0759 53.7054 37.2417 53.4881 38.7456 53.4881H42.8993C42.9586 53.1719 42.9894 52.9085 42.9894 52.6977C42.9894 52.1708 42.8005 51.802 42.4251 51.5912C42.0519 51.3826 41.4108 51.2773 40.5085 51.2773ZM37.9354 58.3422H41.8631L42.4054 55.8591H38.7039C37.4546 55.8591 36.7323 56.2719 36.537 57.0996C36.493 57.2642 36.4689 57.4091 36.4689 57.5277C36.4689 58.0722 36.9585 58.3422 37.9354 58.3422Z" fill="#262262"/>
<path d="M49.1088 51.1871H46.9199L47.4402 48.8182H49.6291L50.5314 44.4844H53.6687L52.7664 48.8182H56.1298L55.6117 51.1871H52.2483L51.2318 55.9951C51.1418 56.3859 51.0957 56.7174 51.0957 56.9874C51.0957 57.5297 51.3064 57.8985 51.728 58.0939C52.088 58.2586 52.773 58.342 53.7829 58.342H54.099L53.6029 60.7109H50.7356C48.7487 60.7109 47.7564 59.8393 47.7564 58.0939C47.7564 57.7624 47.7937 57.4024 47.8684 57.0116L49.1088 51.1871Z" fill="#262262"/>
<path fill-rule="evenodd" clip-rule="evenodd" d="M13.7129 23.1229C13.9939 22.7826 14.2705 22.4379 14.5581 22.0998C15.6098 20.8638 16.1696 19.3357 16.4748 17.6606C16.556 17.2193 16.5911 16.7627 16.6482 16.3126C16.6614 16.2138 16.6504 16.0865 16.7755 16.0733C16.9007 16.0601 16.9797 16.1765 17.0697 16.2643C18.2223 17.373 19.0105 18.6486 19.6164 20.0141C19.836 20.5081 20.0116 20.9977 20.1258 21.496C20.2224 21.9242 20.1565 22.0493 19.7262 21.979C18.7427 21.8188 17.8447 21.9461 16.9731 22.0998C15.9742 22.2754 15.028 22.5828 14.1717 23.0285C14.0488 23.0921 13.9171 23.1448 13.7875 23.2041C13.7634 23.1756 13.7392 23.1492 13.7129 23.1229Z" fill="#0071B4"/>
<path d="M37.8894 25.8086H41.0267L38.4997 37.7035H32.5874C29.8189 37.7035 28.4336 36.7265 28.4336 34.7704C28.4336 34.3489 28.4863 33.8747 28.5917 33.3478L30.1943 25.8086H33.3097L31.7531 33.1216C31.6785 33.4839 31.6411 33.7693 31.6411 33.98C31.6411 34.7331 32.212 35.1085 33.3558 35.1085H35.9069L37.8894 25.8086Z" fill="#0071B4"/>
<path d="M51.1592 35.2424L50.641 37.7035H46.0591C42.766 37.7035 41.1172 36.3204 41.1172 33.5497C41.1172 32.9921 41.1852 32.3905 41.3192 31.7451C41.6814 30.0304 42.4037 28.6605 43.4861 27.6374C44.766 26.4189 46.4653 25.8086 48.5861 25.8086H53.168L52.6499 28.2675H48.4961C47.473 28.2675 46.7353 28.3948 46.2853 28.6517C45.7276 28.9678 45.3302 29.5913 45.0887 30.5244H52.1756L51.6334 33.0294H44.5465C44.5004 33.3609 44.4784 33.6397 44.4784 33.8637C44.4784 34.406 44.6519 34.7704 44.9987 34.9592C45.3456 35.148 46.0064 35.2402 46.9834 35.2402H51.1592V35.2424Z" fill="#0071B4"/>
<path d="M14.5658 40.1537C14.5636 40.1537 14.5636 40.1537 14.5614 40.1515C15.6811 39.6027 16.6844 38.9418 17.6701 38.259C18.7064 37.5411 20.2717 36.1909 20.3134 35.9121C20.1642 35.967 20.0258 36.0087 19.8963 36.0636C18.7152 36.5685 17.4923 37.0054 16.2146 37.3479C14.4143 37.8287 12.5635 38.191 10.592 38.2634C10.2473 38.2766 9.89606 38.2744 9.55796 38.3051C7.90918 38.4522 6.18356 38.1888 4.45355 37.8463C3.0331 37.5631 1.61703 37.0735 0.247077 36.3117C0.170236 36.27 0.0736372 36.1712 0.0143602 36.2568C-0.0383305 36.3336 0.0670533 36.4149 0.119744 36.4873C0.789355 37.394 1.51605 38.2722 2.43155 38.9528C5.94646 41.5676 10.9828 41.8771 14.5658 40.1537Z" fill="#0071B4"/>
<path d="M26.4453 21.4395C26.4057 22.0322 26.3026 22.6294 26.1225 23.2265C26.083 23.3605 26.0391 23.49 25.9952 23.6173L25.7844 24.2321H25.7186L25.4463 24.9039L25.431 24.9434L25.4112 24.9829C25.1917 25.4044 24.9392 25.8062 24.6604 26.1904L22.252 37.666H25.4771L28.88 21.4395H26.4453Z" fill="#0071B4"/>
<path d="M20.9649 14.6762C20.798 14.6147 20.629 14.5576 20.4621 14.5071C20.4072 14.4896 20.3523 14.4764 20.2975 14.461C20.1833 14.4281 20.0691 14.3952 19.955 14.3644C19.8913 14.3491 19.8276 14.3359 19.764 14.3205C19.6564 14.2942 19.551 14.27 19.4434 14.2481C19.3754 14.2349 19.3073 14.2239 19.2371 14.2108C19.1339 14.191 19.0307 14.1712 18.9275 14.1559C18.8572 14.1449 18.787 14.1361 18.7167 14.1273C18.6136 14.1142 18.5104 14.0988 18.4072 14.0856C18.3347 14.0768 18.2623 14.0724 18.192 14.0659C18.091 14.0571 17.99 14.0461 17.8869 14.0373C17.8122 14.0329 17.7376 14.0285 17.6629 14.0241C17.5619 14.0198 17.4631 14.0132 17.3621 14.0088C17.2875 14.0066 17.2107 14.0066 17.1338 14.0044C17.024 14.0022 16.9121 14 16.8001 14C15.6607 14.011 14.5454 14.1537 13.4411 14.4127C11.8077 14.7948 10.3038 15.4358 8.98213 16.4282C6.91182 17.9847 5.61212 19.965 5.90411 22.7642C5.959 23.2999 6.11707 23.7939 6.3937 24.2505C6.45078 24.3449 6.51006 24.4328 6.56933 24.5184C6.58909 24.5447 6.60885 24.5689 6.62861 24.5952C6.67252 24.6545 6.71643 24.7116 6.76253 24.7643C6.78449 24.7906 6.80644 24.817 6.83059 24.8411C6.87889 24.896 6.93158 24.9509 6.98208 25.0014C6.99964 25.0189 7.0194 25.0387 7.03696 25.0563C7.10722 25.1243 7.17747 25.1858 7.25212 25.2473C7.26748 25.2604 7.28285 25.2714 7.29822 25.2824C7.3575 25.3285 7.41897 25.3746 7.48044 25.4163C7.50679 25.4339 7.53094 25.4514 7.55728 25.4668C7.61217 25.5019 7.66706 25.5349 7.72414 25.5678C7.75048 25.5832 7.77463 25.5985 7.80098 25.6117C7.86904 25.649 7.93929 25.6842 8.00954 25.7149C8.02272 25.7215 8.0337 25.7281 8.04687 25.7325C8.1303 25.7698 8.21592 25.8027 8.30154 25.8334C8.32569 25.8422 8.34765 25.8488 8.37179 25.8554C8.43546 25.8774 8.50132 25.8949 8.56499 25.9147C8.59353 25.9213 8.62208 25.93 8.65062 25.9366C8.71429 25.952 8.78015 25.9652 8.84601 25.9783C8.87016 25.9827 8.89651 25.9893 8.92066 25.9937C9.01067 26.0091 9.10288 26.0223 9.19509 26.0332C9.19948 26.0332 9.20606 26.0332 9.21045 26.0332C9.29608 26.042 9.38389 26.0486 9.47171 26.0508C9.50025 26.0508 9.5266 26.053 9.55514 26.053C9.60783 26.053 9.65832 26.053 9.71101 26.053C9.8647 26.0508 10.0184 26.0442 10.1721 26.0288C10.1984 26.0267 10.2248 26.0223 10.2489 26.0201C10.4114 26.0025 10.5738 25.9783 10.7341 25.9432C10.9317 25.9037 11.1227 25.8137 11.2786 25.682C11.5508 25.4514 11.5113 25.1221 11.1929 24.9311C10.9997 24.817 10.789 24.7533 10.576 24.694C9.60124 24.424 9.00189 23.7741 8.92505 22.8762C8.85699 22.077 8.83942 21.2867 9.02823 20.5007C9.30925 19.3218 9.90202 18.3404 10.7363 17.5083C11.7725 16.4743 13.0371 15.8134 14.4751 15.4644C14.62 15.4292 14.7649 15.3985 14.9098 15.37C14.9493 15.3612 14.9911 15.3546 15.0306 15.348C15.1469 15.326 15.2633 15.3085 15.3797 15.2931C15.4126 15.2887 15.4433 15.2843 15.4763 15.2799C15.619 15.2624 15.7617 15.2492 15.9022 15.2382C15.9351 15.236 15.968 15.236 16.001 15.2338C16.1129 15.2273 16.2271 15.2229 16.3391 15.2229C16.3632 15.2229 16.3874 15.2207 16.4093 15.2207C16.4269 15.2207 16.4466 15.2229 16.4642 15.2229C16.5718 15.2229 16.6794 15.2273 16.7869 15.2338C16.8133 15.236 16.8396 15.236 16.866 15.2382C16.9977 15.247 17.1272 15.2602 17.259 15.2778C17.2963 15.2821 17.3336 15.2887 17.3687 15.2931C17.4653 15.3063 17.5619 15.3239 17.6563 15.3414C17.7002 15.3502 17.7442 15.359 17.7881 15.3678C17.8847 15.3875 17.9813 15.4117 18.0757 15.438C18.113 15.4468 18.1481 15.4556 18.1832 15.4666C18.3128 15.5039 18.4401 15.5434 18.5696 15.5895C18.596 15.5983 18.6223 15.6093 18.6487 15.6202C18.7519 15.6576 18.855 15.6993 18.9582 15.7432C18.9999 15.7607 19.0417 15.7805 19.0834 15.8003C19.1756 15.842 19.2656 15.8859 19.3578 15.932C19.3973 15.9517 19.4368 15.9715 19.4764 15.9913C19.6037 16.0593 19.731 16.1296 19.8562 16.2064C21.1581 17.0056 22.0604 18.1011 22.3875 19.6116C22.5763 20.4766 22.4973 21.3174 22.3612 22.1671C22.1241 23.6314 21.5489 24.9267 20.5346 25.9696C20.4533 26.053 20.3721 26.1342 20.2887 26.2133C20.2623 26.2374 20.236 26.2638 20.2096 26.2879C20.1526 26.3428 20.0955 26.3955 20.0384 26.4482C20.0055 26.4767 19.9725 26.5053 19.9418 26.5338C19.8891 26.5799 19.8364 26.626 19.7815 26.6699C19.7464 26.6985 19.7113 26.727 19.6761 26.7555C19.6235 26.7994 19.5686 26.8412 19.5159 26.8807C19.4786 26.9092 19.4434 26.9356 19.4083 26.9619C19.3534 27.0014 19.2985 27.0409 19.2436 27.0783C19.2063 27.1024 19.1712 27.1288 19.1339 27.1529C19.0768 27.1902 19.0175 27.2276 18.9604 27.2649C18.9253 27.2868 18.8902 27.3088 18.855 27.3307C18.7914 27.3703 18.7255 27.4054 18.6597 27.4405C18.6289 27.4581 18.5982 27.4756 18.5674 27.491C18.4752 27.5393 18.383 27.5854 18.2908 27.6271C18.2864 27.6293 18.2798 27.6337 18.2733 27.6359C18.1745 27.6798 18.0713 27.7237 17.9703 27.7632C17.9417 27.7742 17.9132 27.783 17.8847 27.794C17.81 27.8203 17.7354 27.8467 17.6607 27.8708C17.6234 27.884 17.5839 27.8928 17.5444 27.9038C17.4763 27.9235 17.4082 27.9411 17.3402 27.9586C17.2985 27.9696 17.2546 27.9784 17.2129 27.9872C17.147 28.0025 17.0789 28.0157 17.0109 28.0267C16.967 28.0333 16.9209 28.0421 16.8748 28.0487C16.8067 28.0574 16.7386 28.0662 16.6684 28.075C16.6223 28.0794 16.5762 28.0838 16.5301 28.0882C16.4576 28.0948 16.3852 28.097 16.3127 28.0992C16.2666 28.1013 16.2227 28.1035 16.1766 28.1035C16.159 28.1035 16.1415 28.1057 16.1239 28.1057C16.0602 28.1057 15.9944 28.1013 15.9285 28.0992C15.8912 28.097 15.8539 28.097 15.8165 28.0948C15.6936 28.0882 15.5707 28.0772 15.4455 28.064C15.406 28.0596 15.3665 28.0574 15.3292 28.0552C15.3204 28.0552 15.3138 28.0552 15.3072 28.0552C15.2721 28.0552 15.2348 28.0574 15.2018 28.064C15.1952 28.064 15.1887 28.0662 15.1843 28.0684C15.1535 28.075 15.125 28.086 15.0986 28.0992C15.0942 28.1013 15.0899 28.1035 15.0833 28.1057C15.0547 28.1211 15.0306 28.1431 15.0064 28.1694C15.002 28.176 14.9955 28.1826 14.9911 28.1892C14.9691 28.2177 14.9493 28.2528 14.9362 28.2945C14.8527 28.5492 15.0262 28.7117 15.2128 28.8434C15.5224 29.0608 15.8736 29.1749 16.2359 29.2386C16.4269 29.2715 16.6157 29.2957 16.8045 29.311C16.9187 29.3198 17.0306 29.322 17.1426 29.3264C17.215 29.3286 17.2897 29.3352 17.3621 29.3352C17.529 29.3352 17.6937 29.3264 17.8583 29.3132C17.9044 29.3088 17.9527 29.3045 17.9988 29.3001C18.1196 29.2869 18.2425 29.2715 18.3633 29.254C18.4094 29.2474 18.4577 29.2386 18.5038 29.232C18.6618 29.2035 18.8177 29.1705 18.9736 29.131C18.9758 29.131 18.978 29.131 18.978 29.1288C19.1361 29.0871 19.2919 29.0388 19.4456 28.9861C19.4917 28.9707 19.5356 28.9532 19.5817 28.9378C19.6959 28.8961 19.8079 28.8522 19.9198 28.8061C19.9637 28.7863 20.0099 28.7688 20.0538 28.749C20.2031 28.6831 20.3545 28.6129 20.5016 28.5339C22.2953 27.592 23.6982 26.2967 24.5939 24.5711L25.0945 23.3284H25.1252C25.1648 23.2099 25.2065 23.0935 25.2416 22.9706C25.6917 21.4689 25.6499 19.9409 25.0594 18.437C24.3195 16.5182 22.8376 15.3612 20.9649 14.6762Z" fill="#0071B4"/>
<path fill-rule="evenodd" clip-rule="evenodd" d="M14.5061 16.3613C14.6664 16.4733 14.6773 16.5984 14.6839 16.7126C14.7344 17.5381 15.0528 18.3811 15.1713 19.2132C15.3469 20.4602 15.5423 21.7072 15.6214 22.9411C15.6829 23.9137 15.7224 24.8775 15.7114 25.8347C15.696 27.1563 15.5555 28.4341 15.3052 29.6745C14.943 31.4682 14.2931 33.0906 13.1559 34.4145C12.3084 35.4024 11.2502 36.1313 9.91322 36.5309C8.60913 36.9217 7.21941 37.0402 5.72211 36.858C5.21277 36.7965 4.70123 36.7109 4.19189 36.6341C4.09309 36.6187 3.96795 36.5945 3.93941 36.4738C3.91307 36.3662 4.02723 36.3728 4.10407 36.3574C5.27205 36.1137 6.22268 35.5605 7.08549 34.8865C8.69255 33.6307 9.84955 31.9951 10.8441 30.2234C11.8145 28.4912 12.5456 26.6228 13.1274 24.6689C13.6806 22.8115 14.0714 20.8839 14.2931 18.8861C14.3678 18.2077 14.4205 17.5227 14.4293 16.8224C14.4271 16.6599 14.438 16.504 14.5061 16.3613Z" fill="#0071B4"/>
</svg>
