<svg width="481" height="142" viewBox="0 0 481 142" fill="none" xmlns="http://www.w3.org/2000/svg">
<path d="M240.87 119.98H249.98L249.36 122.98H240.8C238.99 122.98 237.94 123.71 237.63 125.17C237.6 125.33 237.58 125.47 237.58 125.61C237.58 126.53 238.2 126.99 239.44 126.99H244.01C245.62 126.99 246.79 127.25 247.52 127.76C248.21 128.26 248.56 129.03 248.56 130.07C248.56 130.55 248.48 131.1 248.33 131.72C247.95 133.4 247.27 134.63 246.29 135.4C245.19 136.28 243.6 136.73 241.51 136.73H232.28L232.9 133.73H241.58C242.64 133.73 243.4 133.54 243.87 133.15C244.27 132.84 244.54 132.3 244.7 131.54C244.74 131.35 244.77 131.19 244.77 131.05C244.77 130.29 244.05 129.91 242.61 129.91H238.52C235.4 129.91 233.84 128.79 233.84 126.56C233.84 126.11 233.9 125.61 234.02 125.05C234.4 123.39 235.09 122.15 236.09 121.35C237.22 120.43 238.81 119.98 240.87 119.98Z" fill="#939598"/>
<path d="M252.99 136.72H249.87L253.36 119.98H256.48L255.56 124.45H258.43C259.82 124.45 260.85 124.64 261.51 125.03C262.32 125.5 262.72 126.3 262.72 127.45C262.72 127.9 262.67 128.4 262.56 128.94L260.93 136.72H257.69L259.23 129.31C259.31 128.94 259.35 128.64 259.35 128.4C259.35 127.58 258.75 127.17 257.56 127.17H254.99L252.99 136.72Z" fill="#939598"/>
<path d="M266.44 124.45H269.74L267.17 136.72H263.86L266.44 124.45ZM267.36 119.98H270.67L270.05 123.03H266.74L267.36 119.98Z" fill="#939598"/>
<path d="M273.62 141.12H270.46L273.95 124.45H280.08C281.63 124.45 282.82 124.83 283.65 125.59C284.48 126.35 284.9 127.44 284.9 128.85C284.9 129.42 284.83 130.05 284.69 130.71C283.85 134.71 281.39 136.72 277.32 136.72H274.54L273.62 141.12ZM281.33 130.65C281.44 130.11 281.49 129.64 281.49 129.23C281.49 128.3 281.15 127.69 280.48 127.4C279.99 127.18 279.07 127.09 277.73 127.12H276.56L275.09 134.08H276.28C277.92 134.08 279.02 133.93 279.59 133.64C280.43 133.21 281.01 132.22 281.33 130.65Z" fill="#939598"/>
<path d="M289.32 141.12H286.15L289.64 124.45H295.77C297.32 124.45 298.5 124.83 299.34 125.59C300.17 126.35 300.59 127.44 300.59 128.85C300.59 129.42 300.52 130.05 300.39 130.71C299.55 134.71 297.09 136.72 293.02 136.72H290.24L289.32 141.12ZM297.04 130.65C297.15 130.11 297.2 129.64 297.2 129.23C297.2 128.3 296.86 127.69 296.19 127.4C295.7 127.18 294.78 127.09 293.44 127.12H292.27L290.8 134.08H291.99C293.63 134.08 294.73 133.93 295.3 133.64C296.13 133.21 296.71 132.22 297.04 130.65Z" fill="#939598"/>
<path d="M304.4 124.45H307.71L305.14 136.72H301.84L304.4 124.45ZM305.32 119.98H308.62L308 123.03H304.69L305.32 119.98Z" fill="#939598"/>
<path d="M312.05 136.72H308.88L311.45 124.45H317.44C318.94 124.45 320.03 124.68 320.72 125.14C321.41 125.6 321.75 126.36 321.75 127.41C321.75 127.86 321.69 128.37 321.57 128.95L319.94 136.73H316.7L318.24 129.37C318.35 128.84 318.4 128.45 318.4 128.2C318.4 127.8 318.27 127.52 318.02 127.38C317.77 127.24 317.3 127.17 316.61 127.17H314.04L312.05 136.72Z" fill="#939598"/>
<path d="M331.92 124.45H337.75L335.27 136.26C334.9 138.01 334.24 139.28 333.27 140.06C332.4 140.77 331.19 141.13 329.67 141.13H323.4L323.93 138.64H329.62C330.91 138.64 331.68 138 331.94 136.73H329.35C325.85 136.73 324.1 135.29 324.1 132.42C324.1 131.86 324.17 131.26 324.31 130.63C324.68 128.84 325.42 127.42 326.54 126.37C327.88 125.08 329.67 124.45 331.92 124.45ZM330.82 134.18H332.47L333.96 127.08C333.5 126.96 333.01 126.89 332.49 126.89C331.36 126.89 330.38 127.17 329.55 127.73C328.54 128.4 327.9 129.39 327.62 130.71C327.53 131.15 327.48 131.53 327.48 131.87C327.48 132.73 327.77 133.33 328.35 133.69C328.88 134.02 329.7 134.18 330.82 134.18Z" fill="#939598"/>
<path d="M341.84 128.62H347.44L348.63 122.84H350.93L349.73 128.62H355.29L354.81 130.9H349.26L348.04 136.72H345.75L346.97 130.9H341.37L341.84 128.62Z" fill="#939598"/>
<path d="M369.82 133.95L369.25 136.72H364.84C362.89 136.72 361.49 136.48 360.64 136C359.55 135.38 359.01 134.23 359.01 132.55C359.01 131.81 359.11 130.94 359.31 129.94L361.4 119.97H364.85L362.92 129.17C362.64 130.5 362.51 131.41 362.51 131.89C362.51 132.62 362.74 133.14 363.21 133.46C363.68 133.78 364.5 133.94 365.7 133.94H369.82V133.95Z" fill="#939598"/>
<path d="M376.84 136.98C374.97 136.98 373.59 136.48 372.68 135.47C371.95 134.65 371.58 133.55 371.58 132.16C371.58 131.65 371.63 131.12 371.74 130.58C372.09 128.87 372.89 127.44 374.13 126.27C375.58 124.89 377.37 124.2 379.5 124.2C381 124.2 382.22 124.58 383.17 125.34C384.23 126.18 384.75 127.38 384.75 128.95C384.75 129.46 384.69 130.01 384.57 130.58C384.19 132.43 383.32 133.94 381.98 135.12C380.56 136.35 378.85 136.98 376.84 136.98ZM377.34 134.32C378.12 134.32 378.84 134.08 379.5 133.6C380.37 132.95 380.95 131.95 381.24 130.62C381.32 130.2 381.36 129.81 381.36 129.46C381.36 128.62 381.14 127.99 380.7 127.55C380.26 127.12 379.69 126.9 378.97 126.9C378.05 126.9 377.23 127.23 376.51 127.88C375.79 128.53 375.31 129.45 375.06 130.63C374.98 131 374.94 131.36 374.94 131.7C374.94 132.51 375.15 133.15 375.58 133.62C376.03 134.08 376.61 134.32 377.34 134.32Z" fill="#939598"/>
<path d="M395.07 124.45H400.9L398.42 136.26C398.05 138.01 397.39 139.28 396.42 140.06C395.55 140.77 394.35 141.13 392.82 141.13H386.55L387.08 138.64H392.77C394.05 138.64 394.83 138 395.09 136.73H392.49C388.99 136.73 387.24 135.29 387.24 132.42C387.24 131.86 387.31 131.26 387.45 130.63C387.82 128.84 388.56 127.42 389.68 126.37C391.02 125.08 392.82 124.45 395.07 124.45ZM393.96 134.18H395.61L397.1 127.08C396.64 126.96 396.15 126.89 395.63 126.89C394.5 126.89 393.52 127.17 392.69 127.73C391.68 128.4 391.04 129.39 390.76 130.71C390.67 131.15 390.62 131.53 390.62 131.87C390.62 132.73 390.91 133.33 391.49 133.69C392.03 134.02 392.85 134.18 393.96 134.18Z" fill="#939598"/>
<path d="M404.13 124.45H407.43L404.86 136.72H401.56L404.13 124.45ZM405.05 119.98H408.36L407.74 123.03H404.44L405.05 119.98Z" fill="#939598"/>
<path d="M416.62 136.72H408.42L408.95 134.18H415.67C416.8 134.18 417.45 133.77 417.62 132.95C417.65 132.84 417.67 132.75 417.67 132.67C417.67 132.06 417.17 131.76 416.18 131.76H413.4C412.18 131.76 411.32 131.65 410.83 131.43C410.14 131.12 409.8 130.5 409.8 129.57C409.8 129.21 409.84 128.81 409.94 128.36C410.49 125.75 412.19 124.45 415.04 124.45H421.88L421.35 126.99H415.7C414.89 126.99 414.32 127.06 414 127.2C413.62 127.37 413.37 127.7 413.26 128.2C413.25 128.29 413.24 128.38 413.24 128.45C413.24 128.96 413.68 129.22 414.55 129.22H417.46C419.74 129.22 420.88 130.07 420.88 131.76C420.88 132.04 420.85 132.34 420.79 132.67C420.58 133.84 420.08 134.8 419.3 135.57C418.52 136.34 417.63 136.72 416.62 136.72Z" fill="#939598"/>
<path d="M425.82 126.89H423.59L424.12 124.44H426.35L427.27 119.97H430.46L429.54 124.44H432.96L432.43 126.89H429.01L427.98 131.85C427.89 132.25 427.84 132.6 427.84 132.87C427.84 133.43 428.06 133.81 428.48 134.01C428.85 134.18 429.54 134.26 430.57 134.26H430.89L430.39 136.71H427.47C425.45 136.71 424.44 135.81 424.44 134.01C424.44 133.67 424.48 133.3 424.55 132.89L425.82 126.89Z" fill="#939598"/>
<path d="M435.37 124.45H438.67L436.1 136.72H432.8L435.37 124.45ZM436.29 119.98H439.6L438.98 123.03H435.68L436.29 119.98Z" fill="#939598"/>
<path d="M446.96 134.09H450.31L449.76 136.72H445.47C441.93 136.72 440.17 135.25 440.17 132.32C440.17 131.79 440.24 131.22 440.38 130.62C441.24 126.51 443.79 124.45 448.05 124.45H452.34L451.79 127.13H448.44C447.12 127.13 446.15 127.32 445.53 127.69C444.65 128.2 444.07 129.18 443.76 130.62C443.65 131.08 443.6 131.48 443.6 131.81C443.59 133.33 444.71 134.09 446.96 134.09Z" fill="#939598"/>
<path d="M460.71 136.72H452.52L453.05 134.18H459.78C460.91 134.18 461.56 133.77 461.73 132.95C461.76 132.84 461.77 132.75 461.77 132.67C461.77 132.06 461.27 131.76 460.28 131.76H457.5C456.28 131.76 455.42 131.65 454.93 131.43C454.24 131.12 453.9 130.5 453.9 129.57C453.9 129.21 453.94 128.81 454.04 128.36C454.59 125.75 456.29 124.45 459.13 124.45H465.97L465.44 126.99H459.79C458.98 126.99 458.41 127.06 458.09 127.2C457.71 127.37 457.46 127.7 457.36 128.2C457.34 128.29 457.34 128.38 457.34 128.45C457.34 128.96 457.78 129.22 458.65 129.22H461.57C463.85 129.22 464.99 130.07 464.99 131.76C464.99 132.04 464.96 132.34 464.9 132.67C464.68 133.84 464.19 134.8 463.41 135.57C462.61 136.34 461.72 136.72 460.71 136.72Z" fill="#939598"/>
<path d="M279.24 108.66H238.64L254.26 34.75H292.2C299.46 34.75 304.78 35.47 308.13 36.91C313.27 39.1 315.84 43.18 315.84 49.14C315.84 50.93 315.6 52.91 315.12 55.1C313.68 62.09 308.88 67.64 300.73 71.75C306.21 74.63 308.95 78.71 308.95 83.98C308.95 85.21 308.78 86.55 308.44 87.99C306.8 95.87 303.2 101.46 297.65 104.75C293.26 107.35 287.12 108.66 279.24 108.66ZM260.64 78.12L256.94 95.6H279.76C286.61 95.6 290.62 92.72 291.79 86.96C292 86.07 292.1 85.21 292.1 84.39C292.1 80.21 289.22 78.12 283.46 78.12H260.64ZM289.63 48H267.01L263.41 65.06H286.03C292.88 65.06 296.89 62.25 298.06 56.63C298.27 55.74 298.37 54.92 298.37 54.16C298.36 50.06 295.45 48 289.63 48Z" fill="#262262"/>
<path d="M338.25 109.79C329.89 109.79 323.69 107.56 319.64 103.11C316.35 99.4801 314.7 94.6101 314.7 88.5101C314.7 86.2501 314.94 83.9201 315.42 81.5201C317 73.9801 320.56 67.6401 326.11 62.5001C332.62 56.4001 340.64 53.3501 350.16 53.3501C356.88 53.3501 362.36 55.0301 366.61 58.3901C371.34 62.0901 373.7 67.4001 373.7 74.3201C373.7 76.5801 373.42 78.9801 372.88 81.5201C371.17 89.6801 367.29 96.3601 361.26 101.57C354.91 107.05 347.23 109.79 338.25 109.79ZM340.51 98.0701C344.01 98.0701 347.23 97.0101 350.17 94.8801C354.08 92.0001 356.68 87.6201 357.98 81.7201C358.32 79.8701 358.49 78.1601 358.49 76.5801C358.49 72.8801 357.51 70.0701 355.56 68.1501C353.61 66.2301 351.02 65.2701 347.8 65.2701C343.69 65.2701 340.02 66.7101 336.8 69.5901C333.58 72.4701 331.42 76.5101 330.32 81.7201C329.98 83.3601 329.81 84.9401 329.81 86.4501C329.81 90.0101 330.77 92.8401 332.69 94.9301C334.62 97.0201 337.23 98.0701 340.51 98.0701Z" fill="#262262"/>
<path d="M409.49 65.68H385.54L387.9 54.48H417.2C429.67 54.48 435.91 59.14 435.91 68.46C435.91 70.38 435.67 72.47 435.19 74.73L427.99 108.65H389.65C385.26 108.65 381.85 107.61 379.42 105.51C376.99 103.42 375.77 100.49 375.77 96.72C375.77 95.42 375.91 94.05 376.18 92.61C377.62 86.03 380.74 81.4 385.53 78.73C389.3 76.74 394.61 75.75 401.46 75.75H420.38C420.65 74.31 420.79 73.11 420.79 72.15C420.79 69.75 419.93 68.07 418.22 67.11C416.52 66.16 413.6 65.68 409.49 65.68ZM397.77 97.86H415.66L418.13 86.55H401.27C395.58 86.55 392.29 88.43 391.4 92.2C391.2 92.95 391.09 93.61 391.09 94.15C391.09 96.63 393.32 97.86 397.77 97.86Z" fill="#262262"/>
<path d="M448.66 65.27H438.69L441.06 54.48H451.03L455.14 34.74H469.43L465.32 54.48H480.64L478.28 65.27H462.96L458.33 87.17C457.92 88.95 457.71 90.46 457.71 91.69C457.71 94.16 458.67 95.84 460.59 96.73C462.23 97.48 465.35 97.86 469.95 97.86H471.39L469.13 108.65H456.07C447.02 108.65 442.5 104.68 442.5 96.73C442.5 95.22 442.67 93.58 443.01 91.8L448.66 65.27Z" fill="#262262"/>
<path fill-rule="evenodd" clip-rule="evenodd" d="M62.62 103.66C63.9 102.11 65.16 100.54 66.47 98.9999C71.26 93.3699 73.81 86.4099 75.2 78.7799C75.57 76.7699 75.73 74.6899 75.99 72.6399C76.05 72.1899 76 71.6098 76.57 71.5498C77.14 71.4898 77.5 72.0199 77.91 72.4199C83.16 77.4699 86.75 83.2799 89.51 89.4999C90.51 91.7499 91.31 93.9799 91.83 96.2499C92.27 98.1999 91.97 98.7699 90.01 98.4499C85.53 97.7199 81.44 98.2999 77.47 98.9999C72.92 99.7999 68.61 101.2 64.71 103.23C64.15 103.52 63.55 103.76 62.96 104.03C62.85 103.9 62.74 103.78 62.62 103.66Z" fill="#0071B4"/>
<path d="M172.75 54.48H187.04L175.53 108.66H148.6C135.99 108.66 129.68 104.21 129.68 95.3C129.68 93.38 129.92 91.22 130.4 88.82L137.7 54.48H151.89L144.8 87.79C144.46 89.44 144.29 90.74 144.29 91.7C144.29 95.13 146.89 96.84 152.1 96.84H163.72L172.75 54.48Z" fill="#0071B4"/>
<path d="M233.19 97.45L230.83 108.66H209.96C194.96 108.66 187.45 102.36 187.45 89.74C187.45 87.2 187.76 84.46 188.37 81.52C190.02 73.71 193.31 67.47 198.24 62.81C204.07 57.26 211.81 54.48 221.47 54.48H242.34L239.98 65.68H221.06C216.4 65.68 213.04 66.26 210.99 67.43C208.45 68.87 206.64 71.71 205.54 75.96H237.82L235.35 87.37H203.07C202.86 88.88 202.76 90.15 202.76 91.17C202.76 93.64 203.55 95.3 205.13 96.16C206.71 97.02 209.72 97.44 214.17 97.44H233.19V97.45Z" fill="#0071B4"/>
<path d="M66.51 119.82C66.5 119.82 66.5 119.82 66.49 119.81C71.59 117.31 76.16 114.3 80.65 111.19C85.37 107.92 92.5 101.77 92.69 100.5C92.01 100.75 91.38 100.94 90.79 101.19C85.41 103.49 79.84 105.48 74.02 107.04C65.82 109.23 57.39 110.88 48.41 111.21C46.84 111.27 45.24 111.26 43.7 111.4C36.19 112.07 28.33 110.87 20.45 109.31C13.98 108.02 7.52996 105.79 1.28996 102.32C0.939957 102.13 0.49996 101.68 0.22996 102.07C-0.0100401 102.42 0.469971 102.79 0.709971 103.12C3.75997 107.25 7.06997 111.25 11.24 114.35C27.25 126.26 50.19 127.67 66.51 119.82Z" fill="#0071B4"/>
<path d="M120.62 34.5798C120.44 37.2798 119.97 39.9998 119.15 42.7198C118.97 43.3298 118.77 43.9198 118.57 44.4998L117.61 47.2998H117.31L116.07 50.3598L116 50.5399L115.91 50.7198C114.91 52.6398 113.76 54.4698 112.49 56.2198L101.52 108.49H116.21L131.71 34.5798H120.62Z" fill="#0071B4"/>
<path d="M95.66 3.76993C94.9 3.48993 94.13 3.22994 93.37 2.99994C93.12 2.91994 92.87 2.85995 92.62 2.78995C92.1 2.63995 91.58 2.48995 91.06 2.34995C90.77 2.27995 90.48 2.21993 90.19 2.14993C89.7 2.02993 89.22 1.91995 88.73 1.81995C88.42 1.75995 88.11 1.70993 87.79 1.64993C87.32 1.55993 86.85 1.46993 86.38 1.39993C86.06 1.34993 85.74 1.30993 85.42 1.26993C84.95 1.20993 84.48 1.13993 84.01 1.07993C83.68 1.03993 83.35 1.01993 83.03 0.989929C82.57 0.949929 82.11 0.899924 81.64 0.859924C81.3 0.839924 80.96 0.819927 80.62 0.799927C80.16 0.779927 79.71 0.74995 79.25 0.72995C78.91 0.71995 78.56 0.71993 78.21 0.70993C77.71 0.69993 77.2 0.689941 76.69 0.689941C71.5 0.739941 66.42 1.38995 61.39 2.56995C53.95 4.30995 47.1 7.22994 41.08 11.7499C31.65 18.8399 25.73 27.8599 27.06 40.6099C27.31 43.0499 28.03 45.2999 29.29 47.3799C29.55 47.8099 29.82 48.2099 30.09 48.5999C30.18 48.7199 30.27 48.83 30.36 48.95C30.56 49.22 30.76 49.4799 30.97 49.7199C31.07 49.8399 31.17 49.9599 31.28 50.0699C31.5 50.3199 31.74 50.5699 31.97 50.7999C32.05 50.8799 32.14 50.9699 32.22 51.0499C32.54 51.3599 32.86 51.64 33.2 51.92C33.27 51.98 33.34 52.0299 33.41 52.0799C33.68 52.2899 33.96 52.4999 34.24 52.6899C34.36 52.7699 34.47 52.85 34.59 52.92C34.84 53.08 35.09 53.2299 35.35 53.3799C35.47 53.4499 35.58 53.5199 35.7 53.5799C36.01 53.7499 36.33 53.9099 36.65 54.0499C36.71 54.0799 36.76 54.1099 36.82 54.1299C37.2 54.2999 37.59 54.4499 37.98 54.5899C38.09 54.6299 38.19 54.6599 38.3 54.6899C38.59 54.7899 38.89 54.8699 39.18 54.9599C39.31 54.9899 39.44 55.0299 39.57 55.0599C39.86 55.1299 40.16 55.1899 40.46 55.2499C40.57 55.2699 40.69 55.2999 40.8 55.3199C41.21 55.3899 41.63 55.4499 42.05 55.4999C42.07 55.4999 42.1 55.4999 42.12 55.4999C42.51 55.5399 42.91 55.5699 43.31 55.5799C43.44 55.5799 43.56 55.5899 43.69 55.5899C43.93 55.5899 44.16 55.5899 44.4 55.5899C45.1 55.5799 45.8 55.5499 46.5 55.4799C46.62 55.47 46.74 55.4499 46.85 55.4399C47.59 55.3599 48.33 55.2499 49.06 55.0899C49.96 54.9099 50.83 54.4999 51.54 53.8999C52.78 52.8499 52.6 51.3499 51.15 50.4799C50.27 49.9599 49.31 49.6699 48.34 49.3999C43.9 48.1699 41.17 45.2099 40.82 41.1199C40.51 37.4799 40.43 33.8799 41.29 30.2999C42.57 24.9299 45.27 20.46 49.07 16.67C53.79 11.96 59.55 8.94992 66.1 7.35992C66.76 7.19992 67.42 7.05993 68.08 6.92993C68.26 6.88993 68.45 6.85993 68.63 6.82993C69.16 6.72993 69.69 6.64993 70.22 6.57993C70.37 6.55993 70.51 6.53993 70.66 6.51993C71.31 6.43993 71.96 6.37993 72.6 6.32993C72.75 6.31993 72.9 6.31994 73.05 6.30994C73.56 6.27994 74.08 6.25995 74.59 6.25995C74.7 6.25995 74.81 6.24994 74.91 6.24994C74.99 6.24994 75.08 6.25995 75.16 6.25995C75.65 6.25995 76.14 6.27994 76.63 6.30994C76.75 6.31994 76.87 6.31993 76.99 6.32993C77.59 6.36993 78.18 6.42995 78.78 6.50995C78.95 6.52995 79.12 6.55993 79.28 6.57993C79.72 6.63993 80.16 6.71993 80.59 6.79993C80.79 6.83993 80.99 6.87995 81.19 6.91995C81.63 7.00995 82.07 7.11993 82.5 7.23993C82.67 7.27993 82.83 7.31993 82.99 7.36993C83.58 7.53993 84.16 7.71993 84.75 7.92993C84.87 7.96993 84.99 8.01995 85.11 8.06995C85.58 8.23995 86.05 8.42994 86.52 8.62994C86.71 8.70994 86.9 8.79995 87.09 8.88995C87.51 9.07995 87.92 9.27993 88.34 9.48993C88.52 9.57993 88.7 9.66995 88.88 9.75995C89.46 10.0699 90.04 10.3899 90.61 10.7399C96.54 14.3799 100.65 19.3699 102.14 26.2499C103 30.1899 102.64 34.02 102.02 37.89C100.94 44.56 98.32 50.4599 93.7 55.2099C93.33 55.5899 92.96 55.9599 92.58 56.3199C92.46 56.4299 92.34 56.5499 92.22 56.6599C91.96 56.9099 91.7 57.15 91.44 57.39C91.29 57.52 91.14 57.6499 91 57.7799C90.76 57.9899 90.52 58.1999 90.27 58.3999C90.11 58.5299 89.95 58.6599 89.79 58.7899C89.55 58.9899 89.3 59.1799 89.06 59.3599C88.89 59.4899 88.73 59.61 88.57 59.7299C88.32 59.91 88.07 60.09 87.82 60.2599C87.65 60.3699 87.49 60.4899 87.32 60.5999C87.06 60.7699 86.79 60.9399 86.53 61.1099C86.37 61.2099 86.21 61.3099 86.05 61.4099C85.76 61.5899 85.46 61.7499 85.16 61.9099C85.02 61.9899 84.88 62.07 84.74 62.14C84.32 62.36 83.9 62.57 83.48 62.7599C83.46 62.7699 83.43 62.7899 83.4 62.7999C82.95 62.9999 82.48 63.1999 82.02 63.3799C81.89 63.4299 81.76 63.4699 81.63 63.5199C81.29 63.6399 80.95 63.7599 80.61 63.8699C80.44 63.9299 80.26 63.9699 80.08 64.0199C79.77 64.1099 79.46 64.1899 79.15 64.2699C78.96 64.3199 78.76 64.3599 78.57 64.3999C78.27 64.4699 77.96 64.5299 77.65 64.5799C77.45 64.6099 77.24 64.6499 77.03 64.6799C76.72 64.7199 76.41 64.7599 76.09 64.7999C75.88 64.8199 75.67 64.8399 75.46 64.8599C75.13 64.8899 74.8 64.8999 74.47 64.9099C74.26 64.9199 74.06 64.9299 73.85 64.9299C73.77 64.9299 73.69 64.9399 73.61 64.9399C73.32 64.9399 73.02 64.9199 72.72 64.9099C72.55 64.8999 72.38 64.9 72.21 64.89C71.65 64.86 71.09 64.8099 70.52 64.7499C70.34 64.7299 70.16 64.7199 69.99 64.7099C69.95 64.7099 69.92 64.7099 69.89 64.7099C69.73 64.7099 69.56 64.7199 69.41 64.7499C69.38 64.7499 69.35 64.7599 69.33 64.7699C69.19 64.7999 69.06 64.8499 68.94 64.9099C68.92 64.9199 68.9 64.9299 68.87 64.9399C68.74 65.0099 68.63 65.1099 68.52 65.2299C68.5 65.2599 68.47 65.2899 68.45 65.3199C68.35 65.4499 68.26 65.6099 68.2 65.7999C67.82 66.9599 68.61 67.6999 69.46 68.2999C70.87 69.2899 72.47 69.8099 74.12 70.0999C74.99 70.2499 75.85 70.3599 76.71 70.4299C77.23 70.4699 77.74 70.4799 78.25 70.4999C78.58 70.5099 78.92 70.5399 79.25 70.5399C80.01 70.5399 80.76 70.4999 81.51 70.4399C81.72 70.4199 81.94 70.3999 82.15 70.3799C82.7 70.3199 83.26 70.25 83.81 70.17C84.02 70.14 84.24 70.0999 84.45 70.0699C85.17 69.9399 85.88 69.7899 86.59 69.6099C86.6 69.6099 86.61 69.6099 86.61 69.5999C87.33 69.4099 88.04 69.1899 88.74 68.95C88.95 68.88 89.15 68.7999 89.36 68.7299C89.88 68.5399 90.39 68.3399 90.9 68.1299C91.1 68.0399 91.31 67.9599 91.51 67.8699C92.19 67.5699 92.88 67.25 93.55 66.89C101.72 62.6 108.11 56.6999 112.19 48.8399L114.47 43.1799H114.61C114.79 42.6399 114.98 42.1099 115.14 41.5499C117.19 34.7099 117 27.7499 114.31 20.8999C110.94 12.1599 104.19 6.88993 95.66 3.76993Z" fill="#0071B4"/>
<path fill-rule="evenodd" clip-rule="evenodd" d="M66.24 11.45C66.97 11.96 67.02 12.5299 67.05 13.0499C67.28 16.8099 68.73 20.6499 69.27 24.4399C70.07 30.1199 70.96 35.8 71.32 41.42C71.6 45.85 71.78 50.2399 71.73 54.5999C71.66 60.6199 71.02 66.4399 69.88 72.0899C68.23 80.2599 65.27 87.6499 60.09 93.6799C56.23 98.1799 51.41 101.5 45.32 103.32C39.38 105.1 33.05 105.64 26.23 104.81C23.91 104.53 21.58 104.14 19.26 103.79C18.81 103.72 18.24 103.61 18.11 103.06C17.99 102.57 18.51 102.6 18.86 102.53C24.18 101.42 28.51 98.8999 32.44 95.8299C39.76 90.1099 45.03 82.6599 49.56 74.5899C53.98 66.6999 57.31 58.1899 59.96 49.2899C62.48 40.8299 64.26 32.05 65.27 22.95C65.61 19.86 65.85 16.7399 65.89 13.5499C65.88 12.8099 65.93 12.1 66.24 11.45Z" fill="#0071B4"/>
</svg>
