<svg width="762" height="1110" viewBox="0 0 762 1110" fill="none" xmlns="http://www.w3.org/2000/svg">
<mask id="mask0_3154_51967" style="mask-type:luminance" maskUnits="userSpaceOnUse" x="0" y="0" width="763" height="1110">
<path d="M0 0H762.293V1109.59H0V0Z" fill="white"/>
</mask>
<g mask="url(#mask0_3154_51967)">
<path d="M0 0H792.293V1120.59H0V0Z" fill="white"/>
<path d="M0 0H792.293V1120.59H0V0Z" fill="white"/>
</g>
<mask id="mask1_3154_51967" style="mask-type:luminance" maskUnits="userSpaceOnUse" x="-48" y="0" width="421" height="258">
<path d="M-48 0H372.782V257.009H-48V0Z" fill="white"/>
</mask>
<g mask="url(#mask1_3154_51967)">
<mask id="mask2_3154_51967" style="mask-type:luminance" maskUnits="userSpaceOnUse" x="-269" y="-284" width="680" height="696">
<path d="M183.49 411.44L-268.186 199.51L-41.4194 -283.787L410.256 -71.8512L183.49 411.44Z" fill="white"/>
</mask>
<g mask="url(#mask2_3154_51967)">
<mask id="mask3_3154_51967" style="mask-type:luminance" maskUnits="userSpaceOnUse" x="-269" y="-284" width="680" height="696">
<path d="M183.49 411.44L-268.186 199.51L-41.4194 -283.787L410.256 -71.8512L183.49 411.44Z" fill="white"/>
</mask>
<g mask="url(#mask3_3154_51967)">
<path d="M369.53 10.804C363.97 25.8423 351.085 38.259 336.442 44.2878C317.56 52.1269 300.248 47.9395 281.839 41.7442C260.663 34.7946 236.911 41.4373 222.601 58.6187C214.544 68.2784 209.222 79.8992 204.01 91.3015C192.53 116.057 177.72 139.517 148.507 143.324C117.655 147.449 98.5492 121.919 69.6742 119.505C48.5186 117.721 28.5229 131.688 15.8306 147.455C-16.2695 187.513 -32.6239 241.747 -88.9071 253.488C-120.518 260.104 -153.68 253.233 -177.774 230.797C-199.502 210.557 -204.631 178.962 -197.244 151.065C-193.322 136.344 -186.144 122.2 -176.765 110.309C-166.153 96.9558 -153.113 84.2062 -152.686 65.9428C-152.379 49.6613 -159.864 33.7906 -161.316 17.4987C-163.173 -1.70105 -161.95 -21.0829 -154.481 -39.029C-140.935 -71.3684 -114.255 -83.9619 -81.3957 -89.1793C-63.2103 -92.0558 -42.7674 -94.5423 -31.2923 -110.611C-21.3048 -124.661 -19.8171 -142.289 -13.112 -157.744C-7.92068 -169.968 0.495789 -180.954 10.0567 -190.042C29.3292 -208.56 55.6294 -218.891 82.3977 -214.885C116.719 -209.912 142.338 -181.464 164.284 -156.776C174.802 -145.052 186.808 -133.311 201.742 -127.527C217.233 -121.477 233.514 -121.17 249.708 -117.779C289.059 -109.633 324.155 -93.5748 350.169 -62.2237C364.401 -45.0942 375.273 -21.395 371.882 1.45644C371.465 4.65552 370.555 7.75578 369.53 10.804Z" fill="#E6E4E4"/>
</g>
</g>
</g>
<mask id="mask4_3154_51967" style="mask-type:luminance" maskUnits="userSpaceOnUse" x="0" y="-5" width="364" height="254">
<path d="M0 -5H363.139V248.014H0V-5Z" fill="white"/>
</mask>
<g mask="url(#mask4_3154_51967)">
<mask id="mask5_3154_51967" style="mask-type:luminance" maskUnits="userSpaceOnUse" x="-217" y="-293" width="614" height="696">
<path d="M191.5 402.919L-216.371 190.988L-11.5971 -292.309L396.274 -80.3727L191.5 402.919Z" fill="white"/>
</mask>
<g mask="url(#mask5_3154_51967)">
<mask id="mask6_3154_51967" style="mask-type:luminance" maskUnits="userSpaceOnUse" x="-217" y="-293" width="614" height="696">
<path d="M191.5 402.919L-216.371 190.988L-11.5971 -292.309L396.274 -80.3727L191.5 402.919Z" fill="white"/>
</mask>
<g mask="url(#mask6_3154_51967)">
<path d="M359.498 2.28253C354.477 17.3209 342.842 29.7375 329.619 35.7664C312.568 43.6054 296.935 39.418 280.311 33.2279C261.189 26.2783 239.741 32.9158 226.818 50.0972C219.542 59.7569 214.737 71.3777 210.03 82.78C199.663 107.535 186.29 130.995 159.91 134.803C132.051 138.928 114.797 113.398 88.7226 110.984C69.6187 109.2 51.5623 123.172 40.1009 138.938C11.1139 178.992 -3.65443 233.231 -54.4792 244.971C-83.0247 251.583 -112.97 244.716 -134.728 222.276C-154.348 202.036 -158.98 170.44 -152.31 142.543C-148.768 127.822 -142.286 113.679 -133.817 101.787C-124.234 88.4343 -112.458 75.6848 -112.073 57.4213C-111.796 41.1398 -118.555 25.2692 -119.866 8.97722C-121.543 -10.2225 -120.439 -29.6043 -113.693 -47.5505C-101.462 -79.8899 -77.3691 -92.4834 -47.6963 -97.7007C-31.2746 -100.572 -12.8142 -103.064 -2.45193 -119.132C6.56688 -133.177 7.91031 -150.811 13.9651 -166.26C18.653 -178.489 26.2533 -189.476 34.8869 -198.563C52.2904 -217.081 76.0399 -227.412 100.212 -223.407C131.205 -218.434 154.339 -189.985 174.157 -165.298C183.655 -153.573 194.496 -141.833 207.982 -136.048C221.971 -129.999 236.673 -129.692 251.296 -126.3C286.831 -118.154 318.524 -102.096 342.015 -70.7452C354.867 -53.6157 364.684 -29.9112 361.622 -7.06505C361.246 -3.86597 360.424 -0.765701 359.498 2.28253Z" fill="#FFBD59"/>
</g>
</g>
</g>
<mask id="mask7_3154_51967" style="mask-type:luminance" maskUnits="userSpaceOnUse" x="-39" y="0" width="388" height="224">
<path d="M-39 0H348.491V223.718H-39V0Z" fill="white"/>
</mask>
<g mask="url(#mask7_3154_51967)">
<mask id="mask8_3154_51967" style="mask-type:luminance" maskUnits="userSpaceOnUse" x="-294" y="-317" width="680" height="696">
<path d="M158.552 378.272L-293.123 166.337L-66.3517 -316.955L385.323 -105.019L158.552 378.272Z" fill="white"/>
</mask>
<g mask="url(#mask8_3154_51967)">
<mask id="mask9_3154_51967" style="mask-type:luminance" maskUnits="userSpaceOnUse" x="-294" y="-317" width="680" height="696">
<path d="M158.552 378.272L-293.123 166.337L-66.3517 -316.955L385.323 -105.019L158.552 378.272Z" fill="white"/>
</mask>
<g mask="url(#mask9_3154_51967)">
<path d="M344.599 -22.3639C339.033 -7.32561 326.148 5.09103 311.511 11.1199C292.623 18.959 275.311 14.7715 256.902 8.57623C235.726 1.62665 211.975 8.26932 197.67 25.4508C189.607 35.1053 184.291 46.7312 179.073 58.1335C167.598 82.8888 152.784 106.349 123.576 110.156C92.724 114.276 73.6127 88.746 44.7428 86.3323C23.582 84.5533 3.5916 98.5201 -9.10593 114.287C-41.2061 154.346 -57.5553 208.579 -113.838 220.32C-145.455 226.936 -178.616 220.065 -202.706 197.629C-224.433 177.389 -229.568 145.794 -222.181 117.897C-218.259 103.176 -211.075 89.0269 -201.696 77.1408C-191.09 63.7878 -178.044 51.0383 -177.623 32.7749C-177.31 16.4881 -184.801 0.622711 -186.252 -15.6693C-188.104 -34.869 -186.882 -54.2508 -179.412 -72.1969C-165.872 -104.536 -139.187 -117.13 -106.327 -122.347C-88.1469 -125.224 -67.6987 -127.71 -56.2236 -143.779C-46.2362 -157.829 -44.7537 -175.457 -38.0486 -190.912C-32.852 -203.136 -24.4408 -214.122 -14.8799 -223.215C4.39789 -241.728 30.6981 -252.059 57.4612 -248.053C91.7877 -243.08 117.401 -214.637 139.353 -189.944C149.871 -178.219 161.871 -166.479 176.805 -160.695C192.296 -154.645 208.583 -154.338 224.776 -150.947C264.128 -142.801 299.219 -126.743 325.238 -95.3916C339.465 -78.2622 350.337 -54.5629 346.95 -31.7167C346.534 -28.5176 345.624 -25.4122 344.599 -22.3639Z" fill="#0071B4"/>
</g>
</g>
</g>
<mask id="mask10_3154_51967" style="mask-type:luminance" maskUnits="userSpaceOnUse" x="251" y="46" width="45" height="44">
<path d="M251.664 46H295.609V89.9446H251.664V46Z" fill="white"/>
</mask>
<g mask="url(#mask10_3154_51967)">
<mask id="mask11_3154_51967" style="mask-type:luminance" maskUnits="userSpaceOnUse" x="248" y="43" width="51" height="51">
<path d="M256.367 43.3418L298.589 50.9936L290.938 93.2164L248.715 85.5594L256.367 43.3418Z" fill="white"/>
</mask>
<g mask="url(#mask11_3154_51967)">
<mask id="mask12_3154_51967" style="mask-type:luminance" maskUnits="userSpaceOnUse" x="248" y="43" width="51" height="51">
<path d="M256.367 43.3418L298.589 50.9936L290.938 93.2164L248.715 85.5594L256.367 43.3418Z" fill="white"/>
</mask>
<g mask="url(#mask12_3154_51967)">
<path d="M294.927 72.2323C294.802 72.9241 294.641 73.6107 294.449 74.2922C294.256 74.9684 294.032 75.6342 293.772 76.2949C293.512 76.9503 293.221 77.5901 292.898 78.2195C292.576 78.8489 292.227 79.4575 291.842 80.0505C291.463 80.6435 291.052 81.2157 290.615 81.7723C290.178 82.3237 289.71 82.8543 289.221 83.3641C288.732 83.8686 288.217 84.3524 287.676 84.8102C287.14 85.2627 286.583 85.6945 286.001 86.095C285.423 86.5007 284.825 86.8701 284.206 87.2134C283.592 87.5567 282.958 87.8688 282.313 88.1497C281.663 88.4306 281.002 88.6803 280.331 88.8988C279.66 89.112 278.978 89.2941 278.292 89.445C277.6 89.5958 276.903 89.7102 276.206 89.7935C275.504 89.8715 274.801 89.9183 274.094 89.9287C273.387 89.9443 272.684 89.9183 271.982 89.8611C271.275 89.8039 270.578 89.7154 269.886 89.5906C269.189 89.4606 268.502 89.3045 267.826 89.112C267.144 88.9144 266.479 88.6907 265.823 88.4306C265.163 88.1705 264.523 87.8844 263.893 87.5619C263.269 87.2394 262.655 86.8857 262.062 86.5059C261.469 86.121 260.897 85.7101 260.346 85.2731C259.789 84.8362 259.259 84.3732 258.754 83.8791C258.244 83.3901 257.76 82.8751 257.308 82.3393C256.85 81.7983 256.418 81.2418 256.018 80.6592C255.617 80.0818 255.243 79.4836 254.899 78.8645C254.556 78.2507 254.244 77.6161 253.963 76.9711C253.682 76.3209 253.433 75.6654 253.219 74.9944C253.001 74.3182 252.819 73.642 252.668 72.9501C252.517 72.2583 252.403 71.5665 252.325 70.8642C252.241 70.162 252.195 69.4597 252.184 68.7523C252.169 68.0501 252.195 67.3426 252.252 66.6404C252.309 65.9381 252.397 65.2359 252.527 64.5441C252.652 63.847 252.808 63.1604 253.006 62.4842C253.198 61.8079 253.422 61.1369 253.682 60.4815C253.942 59.826 254.234 59.181 254.556 58.5568C254.873 57.9274 255.227 57.3136 255.612 56.7206C255.992 56.1276 256.403 55.5554 256.84 55.004C257.277 54.4526 257.745 53.922 258.234 53.4123C258.723 52.9025 259.238 52.4239 259.774 51.9662C260.315 51.5084 260.871 51.0819 261.454 50.6761C262.031 50.2756 262.629 49.9011 263.248 49.5577C263.862 49.2144 264.497 48.9023 265.142 48.6214C265.792 48.3405 266.453 48.0908 267.124 47.8776C267.795 47.6591 268.476 47.477 269.163 47.3262C269.855 47.1805 270.552 47.0661 271.249 46.9829C271.951 46.8996 272.653 46.8528 273.361 46.8424C274.068 46.832 274.77 46.8528 275.472 46.91C276.175 46.9673 276.877 47.0609 277.569 47.1857C278.266 47.3106 278.952 47.4718 279.629 47.6643C280.31 47.8568 280.976 48.0856 281.631 48.3405C282.287 48.6006 282.932 48.8919 283.561 49.2144C284.185 49.5369 284.799 49.8855 285.392 50.2704C285.985 50.6501 286.557 51.0611 287.109 51.498C287.665 51.9402 288.196 52.4031 288.701 52.8921C289.21 53.3863 289.689 53.896 290.147 54.437C290.604 54.9728 291.036 55.5346 291.437 56.112C291.837 56.6946 292.212 57.2928 292.555 57.9066C292.898 58.5256 293.211 59.155 293.491 59.8052C293.772 60.4503 294.022 61.1109 294.235 61.7819C294.454 62.4529 294.636 63.1344 294.787 63.8262C294.938 64.5128 295.052 65.2099 295.13 65.9121C295.213 66.6092 295.26 67.3166 295.27 68.0188C295.281 68.7263 295.26 69.4285 295.203 70.136C295.146 70.8382 295.057 71.5352 294.927 72.2323Z" fill="#E6E4E4"/>
</g>
</g>
</g>
<mask id="mask13_3154_51967" style="mask-type:luminance" maskUnits="userSpaceOnUse" x="221" y="86" width="23" height="24">
<path d="M221.332 86H243.97V109.97H221.332V86Z" fill="white"/>
</mask>
<g mask="url(#mask13_3154_51967)">
<mask id="mask14_3154_51967" style="mask-type:luminance" maskUnits="userSpaceOnUse" x="219" y="84" width="28" height="28">
<path d="M223.522 84.7402L246.102 88.834L242.009 111.415L219.428 107.321L223.522 84.7402Z" fill="white"/>
</mask>
<g mask="url(#mask14_3154_51967)">
<mask id="mask15_3154_51967" style="mask-type:luminance" maskUnits="userSpaceOnUse" x="219" y="84" width="28" height="28">
<path d="M223.522 84.7402L246.102 88.834L242.009 111.415L219.428 107.321L223.522 84.7402Z" fill="white"/>
</mask>
<g mask="url(#mask15_3154_51967)">
<path d="M243.611 99.7897C243.476 100.518 243.278 101.22 243.008 101.907C242.737 102.593 242.399 103.249 242.004 103.868C241.603 104.487 241.145 105.059 240.636 105.59C240.121 106.12 239.564 106.594 238.961 107.015C238.352 107.436 237.712 107.795 237.036 108.087C236.36 108.378 235.663 108.607 234.94 108.763C234.222 108.919 233.494 109.002 232.755 109.012C232.016 109.028 231.288 108.966 230.56 108.836C229.837 108.706 229.129 108.503 228.443 108.232C227.761 107.962 227.106 107.629 226.487 107.228C225.868 106.828 225.29 106.375 224.76 105.86C224.235 105.35 223.756 104.789 223.335 104.185C222.918 103.577 222.56 102.937 222.268 102.261C221.972 101.584 221.748 100.887 221.592 100.164C221.436 99.4464 221.353 98.7181 221.337 97.9795C221.327 97.246 221.384 96.5126 221.519 95.7895C221.649 95.0613 221.852 94.3591 222.123 93.6724C222.393 92.9858 222.726 92.3304 223.127 91.7114C223.522 91.0923 223.98 90.5202 224.489 89.9896C225.004 89.459 225.561 88.9856 226.17 88.5643C226.773 88.1429 227.418 87.784 228.094 87.4927C228.765 87.2014 229.468 86.9725 230.185 86.8165C230.908 86.6604 231.637 86.5772 232.37 86.5668C233.109 86.5512 233.842 86.6136 234.565 86.7437C235.293 86.8737 235.996 87.0766 236.682 87.3471C237.369 87.6176 238.019 87.9505 238.638 88.351C239.262 88.7515 239.835 89.2041 240.365 89.7191C240.896 90.2289 241.369 90.7906 241.791 91.3941C242.212 92.0027 242.566 92.6425 242.862 93.3187C243.153 93.9949 243.377 94.692 243.533 95.415C243.689 96.1329 243.778 96.8611 243.788 97.5998C243.798 98.3332 243.741 99.0667 243.611 99.7897Z" fill="#E6E4E4"/>
</g>
</g>
</g>
<mask id="mask16_3154_51967" style="mask-type:luminance" maskUnits="userSpaceOnUse" x="249" y="46" width="43" height="43">
<path d="M249 46H291.613V88.6129H249V46Z" fill="white"/>
</mask>
<g mask="url(#mask16_3154_51967)">
<mask id="mask17_3154_51967" style="mask-type:luminance" maskUnits="userSpaceOnUse" x="246" y="42" width="49" height="50">
<path d="M253.682 42.8574L294.922 50.3324L287.447 91.5668L246.207 84.0919L253.682 42.8574Z" fill="white"/>
</mask>
<g mask="url(#mask17_3154_51967)">
<mask id="mask18_3154_51967" style="mask-type:luminance" maskUnits="userSpaceOnUse" x="246" y="42" width="49" height="50">
<path d="M253.682 42.8574L294.922 50.3324L287.447 91.5668L246.207 84.0919L253.682 42.8574Z" fill="white"/>
</mask>
<g mask="url(#mask18_3154_51967)">
<path d="M290.907 70.7385C290.662 72.0858 290.288 73.3914 289.788 74.6607C289.289 75.9299 288.67 77.1419 287.926 78.2915C287.188 79.4359 286.345 80.5022 285.398 81.4854C284.446 82.4685 283.411 83.3476 282.287 84.1227C281.164 84.903 279.978 85.5636 278.724 86.1098C277.476 86.6507 276.181 87.0669 274.844 87.3582C273.512 87.6443 272.16 87.8055 270.797 87.8263C269.429 87.8472 268.076 87.7379 266.729 87.4934C265.387 87.2542 264.081 86.8796 262.812 86.3803C261.538 85.8757 260.331 85.2567 259.181 84.518C258.032 83.7794 256.97 82.9367 255.987 81.9848C255.004 81.038 254.125 80.0029 253.345 78.8793C252.57 77.7557 251.909 76.5697 251.363 75.3161C250.817 74.0625 250.401 72.7672 250.114 71.4356C249.823 70.0987 249.667 68.7514 249.646 67.3834C249.62 66.0205 249.73 64.6628 249.974 63.3208C250.219 61.9787 250.593 60.6679 251.092 59.3987C251.592 58.1294 252.211 56.9174 252.955 55.773C253.693 54.6234 254.536 53.5571 255.483 52.5739C256.435 51.596 257.47 50.7117 258.593 49.9366C259.717 49.1564 260.903 48.4957 262.157 47.9548C263.41 47.4086 264.7 46.9924 266.037 46.7011C267.369 46.415 268.721 46.259 270.084 46.233C271.452 46.2122 272.805 46.3214 274.152 46.5659C275.494 46.8104 276.8 47.1797 278.074 47.6843C279.343 48.1836 280.55 48.8026 281.7 49.5413C282.849 50.2799 283.916 51.1278 284.894 52.0746C285.877 53.0265 286.756 54.0616 287.536 55.18C288.311 56.3036 288.972 57.4896 289.518 58.7432C290.064 59.9969 290.48 61.2921 290.766 62.6238C291.058 63.9606 291.214 65.3131 291.235 66.6759C291.261 68.044 291.151 69.3965 290.907 70.7385Z" fill="#FFBD59"/>
</g>
</g>
</g>
<mask id="mask19_3154_51967" style="mask-type:luminance" maskUnits="userSpaceOnUse" x="220" y="86" width="23" height="23">
<path d="M220 86H242.638V108.638H220V86Z" fill="white"/>
</mask>
<g mask="url(#mask19_3154_51967)">
<mask id="mask20_3154_51967" style="mask-type:luminance" maskUnits="userSpaceOnUse" x="218" y="84" width="26" height="27">
<path d="M222.122 84.4863L243.72 88.4033L239.808 110.006L218.205 106.089L222.122 84.4863Z" fill="white"/>
</mask>
<g mask="url(#mask20_3154_51967)">
<mask id="mask21_3154_51967" style="mask-type:luminance" maskUnits="userSpaceOnUse" x="218" y="84" width="26" height="27">
<path d="M222.122 84.4863L243.72 88.4033L239.808 110.006L218.205 106.089L222.122 84.4863Z" fill="white"/>
</mask>
<g mask="url(#mask21_3154_51967)">
<path d="M241.514 99.0144C241.384 99.7166 241.191 100.398 240.931 101.059C240.671 101.719 240.343 102.349 239.958 102.947C239.574 103.545 239.137 104.102 238.642 104.612C238.148 105.126 237.607 105.584 237.025 105.99C236.437 106.396 235.818 106.739 235.168 107.02C234.512 107.306 233.841 107.525 233.144 107.675C232.447 107.826 231.745 107.904 231.032 107.92C230.325 107.93 229.617 107.873 228.915 107.743C228.218 107.618 227.537 107.426 226.876 107.166C226.21 106.9 225.581 106.578 224.983 106.193C224.384 105.808 223.833 105.371 223.318 104.877C222.808 104.383 222.35 103.842 221.945 103.254C221.539 102.671 221.196 102.052 220.91 101.402C220.629 100.747 220.41 100.07 220.259 99.3785C220.109 98.6815 220.025 97.9792 220.015 97.2666C220.004 96.554 220.062 95.8517 220.187 95.1495C220.317 94.4524 220.509 93.771 220.769 93.1052C221.029 92.4446 221.352 91.8151 221.737 91.2169C222.122 90.6187 222.564 90.0621 223.058 89.5524C223.552 89.0426 224.093 88.5796 224.676 88.1791C225.263 87.7734 225.882 87.4248 226.533 87.144C227.188 86.8579 227.859 86.6446 228.556 86.4937C229.248 86.3429 229.955 86.2597 230.663 86.2492C231.376 86.2388 232.083 86.2961 232.78 86.4209C233.482 86.5457 234.164 86.7434 234.824 87.0035C235.485 87.2636 236.12 87.5861 236.718 87.971C237.316 88.356 237.867 88.7981 238.382 89.2923C238.892 89.7865 239.35 90.3274 239.756 90.91C240.161 91.4926 240.505 92.1116 240.791 92.7671C241.072 93.4173 241.29 94.0935 241.441 94.7906C241.592 95.4824 241.67 96.1846 241.685 96.8973C241.696 97.6099 241.639 98.3174 241.514 99.0144Z" fill="#0071B4"/>
</g>
</g>
</g>
</svg>
