<svg xmlns="http://www.w3.org/2000/svg" width="15" height="14" viewBox="0 0 15 14" fill="none">
<path d="M1.50977 2.2C1.50977 1.53726 2.04702 1 2.70977 1H5.10977C5.77251 1 6.30977 1.53726 6.30977 2.2V4.6C6.30977 5.26274 5.77251 5.8 5.10977 5.8H2.70977C2.04702 5.8 1.50977 5.26274 1.50977 4.6V2.2Z" stroke="#116ACC" stroke-width="1.5"/>
<path d="M13.5098 3.4C13.5098 4.72548 12.4352 5.8 11.1098 5.8C9.78428 5.8 8.70977 4.72548 8.70977 3.4C8.70977 2.07452 9.78428 1 11.1098 1C12.4352 1 13.5098 2.07452 13.5098 3.4Z" stroke="#116ACC" stroke-width="1.5"/>
<path d="M6.30977 10.6C6.30977 11.9255 5.23525 13 3.90977 13C2.58428 13 1.50977 11.9255 1.50977 10.6C1.50977 9.27452 2.58428 8.2 3.90977 8.2C5.23525 8.2 6.30977 9.27452 6.30977 10.6Z" stroke="#116ACC" stroke-width="1.5"/>
<path d="M8.70977 9.4C8.70977 8.73726 9.24702 8.2 9.90977 8.2H12.3098C12.9725 8.2 13.5098 8.73726 13.5098 9.4V11.8C13.5098 12.4627 12.9725 13 12.3098 13H9.90977C9.24702 13 8.70977 12.4627 8.70977 11.8V9.4Z" stroke="#116ACC" stroke-width="1.5"/>
</svg>