<svg xmlns="http://www.w3.org/2000/svg" width="11" height="12" viewBox="0 0 11 12" fill="none">
<path d="M9.84758 10.8476C9.37858 11.3166 8.61858 11.3166 8.15058 10.8476L5.49958 7.81758L2.84858 10.8466C2.37958 11.3156 1.61958 11.3156 1.15158 10.8466C0.682578 10.3776 0.682578 9.61758 1.15158 9.14958L3.90958 5.99958L1.15058 2.84758C0.681578 2.37858 0.681578 1.61958 1.15058 1.15058C1.61958 0.681578 2.37858 0.681578 2.84758 1.15058L5.49958 4.18158L8.15058 1.15058C8.61958 0.681578 9.37858 0.681578 9.84758 1.15058C10.3166 1.61958 10.3166 2.37958 9.84758 2.84758L7.08958 5.99958L9.84758 9.14958C10.3166 9.61858 10.3166 10.3786 9.84758 10.8476Z" fill="white"/>
</svg>