<svg xmlns="http://www.w3.org/2000/svg" width="19" height="22" viewBox="0 0 19 22" fill="none">
<path fill-rule="evenodd" clip-rule="evenodd" d="M4.96967 11.5303C4.67677 11.2374 4.67678 10.7626 4.96967 10.4697C5.26257 10.1768 5.73744 10.1768 6.03033 10.4697L8.74996 13.1893L8.74996 1C8.74996 0.585786 9.08575 0.25 9.49996 0.25C9.91418 0.25 10.25 0.585786 10.25 1V13.1894L12.9697 10.4697C13.2626 10.1768 13.7374 10.1768 14.0303 10.4697C14.3232 10.7626 14.3232 11.2374 14.0303 11.5303L10.0303 15.5303C9.88964 15.671 9.69887 15.75 9.49996 15.75C9.30105 15.75 9.11028 15.671 8.96963 15.5303L4.96967 11.5303ZM3.83981 8.46913C4.09889 8.14594 4.04692 7.67392 3.72373 7.41484C3.40054 7.15576 2.92852 7.20774 2.66944 7.53093C1.46871 9.02878 0.75 10.9315 0.75 13C0.75 17.8325 4.66751 21.75 9.5 21.75C14.3325 21.75 18.25 17.8325 18.25 13C18.25 10.9315 17.5313 9.02878 16.3306 7.53093C16.0715 7.20774 15.5995 7.15576 15.2763 7.41484C14.9531 7.67392 14.9011 8.14594 15.1602 8.46913C16.1553 9.71047 16.75 11.2848 16.75 13C16.75 17.0041 13.5041 20.25 9.5 20.25C5.49594 20.25 2.25 17.0041 2.25 13C2.25 11.2848 2.84472 9.71047 3.83981 8.46913Z" fill="#16151C"/>
</svg>