<svg xmlns="http://www.w3.org/2000/svg" width="14" height="15" viewBox="0 0 14 15" fill="none">
<path opacity="0.4" d="M9.0313 2.25H4.38797C2.37547 2.25 1.16797 3.45167 1.16797 5.47V10.1075C1.16797 12.1317 2.37547 13.3333 4.38797 13.3333H9.02547C11.0438 13.3333 12.2455 12.1317 12.2455 10.1133V5.47C12.2513 3.45167 11.0438 2.25 9.0313 2.25Z" fill="white"/>
<path d="M12.2623 2.23768C11.2182 1.18768 10.1973 1.16435 9.12401 2.23768L8.46484 2.89101C8.40651 2.94935 8.38901 3.03101 8.41234 3.10685C8.82068 4.53601 9.96401 5.67935 11.3932 6.08768C11.4107 6.09351 11.4398 6.09351 11.4573 6.09351C11.5157 6.09351 11.574 6.07018 11.6148 6.02935L12.2623 5.37601C12.7932 4.84518 13.0557 4.33768 13.0557 3.81851C13.0557 3.29351 12.7932 2.77435 12.2623 2.23768Z" fill="white"/>
<path d="M10.4203 6.57857C10.2628 6.50273 10.1111 6.4269 9.9711 6.3394C9.85443 6.2694 9.73776 6.19357 9.62693 6.1119C9.5336 6.05357 9.4286 5.96607 9.3236 5.87857C9.31193 5.87273 9.27693 5.84357 9.23026 5.7969C9.04943 5.65107 8.85693 5.45273 8.6761 5.2369C8.66443 5.22523 8.62943 5.19023 8.60026 5.13773C8.54193 5.07357 8.45443 4.96273 8.3786 4.84023C8.31443 4.75857 8.2386 4.6419 8.1686 4.5194C8.0811 4.37357 8.00526 4.22773 7.93526 4.07607C7.85943 3.91273 7.8011 3.76107 7.7486 3.61523L4.61026 6.75357C4.4061 6.95773 4.20776 7.34273 4.16693 7.62857L3.9161 9.3669C3.8636 9.7344 3.96276 10.0786 4.19026 10.3061C4.38276 10.4986 4.64526 10.5977 4.93693 10.5977C5.0011 10.5977 5.06526 10.5919 5.12943 10.5861L6.86193 10.3411C7.14776 10.3002 7.53276 10.1077 7.73693 9.89774L10.8753 6.7594C10.7294 6.71273 10.5836 6.64857 10.4203 6.57857Z" fill="white"/>
</svg>