<svg xmlns="http://www.w3.org/2000/svg" width="24" height="25" viewBox="0 0 24 25" fill="none">
<path d="M14.4708 8.02934C14.5395 8.10303 14.6223 8.16213 14.7143 8.20312C14.8063 8.24411 14.9056 8.26615 15.0063 8.26793C15.107 8.26971 15.207 8.25118 15.3004 8.21346C15.3938 8.17574 15.4786 8.1196 15.5499 8.04838C15.6211 7.97716 15.6772 7.89233 15.7149 7.79894C15.7527 7.70555 15.7712 7.60552 15.7694 7.50482C15.7676 7.40411 15.7456 7.3048 15.7046 7.2128C15.6636 7.1208 15.6045 7.038 15.5308 6.96934L12.5308 3.96934C12.3902 3.82889 12.1996 3.75 12.0008 3.75C11.8021 3.75 11.6114 3.82889 11.4708 3.96934L8.47082 6.96934C8.33834 7.11151 8.26622 7.29956 8.26965 7.49386C8.27308 7.68816 8.35179 7.87355 8.4892 8.01096C8.62662 8.14838 8.812 8.22709 9.0063 8.23052C9.2006 8.23394 9.38865 8.16182 9.53082 8.02934L11.2508 6.30934V14.4993C11.2508 14.6983 11.3298 14.889 11.4705 15.0297C11.6111 15.1703 11.8019 15.2493 12.0008 15.2493C12.1997 15.2493 12.3905 15.1703 12.5312 15.0297C12.6718 14.889 12.7508 14.6983 12.7508 14.4993V6.30934L14.4708 8.02934Z" fill="#116ACC"/>
<path d="M20.75 12.5C20.75 12.3011 20.671 12.1103 20.5303 11.9697C20.3897 11.829 20.1989 11.75 20 11.75C19.8011 11.75 19.6103 11.829 19.4697 11.9697C19.329 12.1103 19.25 12.3011 19.25 12.5C19.25 13.4521 19.0625 14.3948 18.6981 15.2745C18.3338 16.1541 17.7997 16.9533 17.1265 17.6265C16.4533 18.2997 15.6541 18.8338 14.7745 19.1981C13.8948 19.5625 12.9521 19.75 12 19.75C11.0479 19.75 10.1052 19.5625 9.22554 19.1981C8.34593 18.8338 7.5467 18.2997 6.87348 17.6265C6.20025 16.9533 5.66622 16.1541 5.30187 15.2745C4.93753 14.3948 4.75 13.4521 4.75 12.5C4.75 12.3011 4.67098 12.1103 4.53033 11.9697C4.38968 11.829 4.19891 11.75 4 11.75C3.80109 11.75 3.61032 11.829 3.46967 11.9697C3.32902 12.1103 3.25 12.3011 3.25 12.5C3.25 14.8206 4.17187 17.0462 5.81282 18.6872C7.45376 20.3281 9.67936 21.25 12 21.25C14.3206 21.25 16.5462 20.3281 18.1872 18.6872C19.8281 17.0462 20.75 14.8206 20.75 12.5Z" fill="#116ACC"/>
</svg>