<svg xmlns="http://www.w3.org/2000/svg" width="12" height="12" viewBox="0 0 12 12" fill="none">
<g clip-path="url(#clip0_3145_13228)">
<path d="M11.9104 5.5905C11.4714 4.6305 9.74994 1.5 5.99994 1.5C2.24994 1.5 0.528436 4.6305 0.0894356 5.5905C0.0305048 5.71915 0 5.85899 0 6.0005C0 6.14201 0.0305048 6.28185 0.0894356 6.4105C0.528436 7.3695 2.24994 10.5 5.99994 10.5C9.74994 10.5 11.4714 7.3695 11.9104 6.4095C11.9692 6.28099 11.9997 6.14133 11.9997 6C11.9997 5.85867 11.9692 5.71901 11.9104 5.5905ZM5.99994 9C5.40659 9 4.82657 8.82405 4.33323 8.49441C3.83988 8.16476 3.45536 7.69623 3.2283 7.14805C3.00123 6.59987 2.94182 5.99667 3.05758 5.41473C3.17334 4.83279 3.45906 4.29824 3.87862 3.87868C4.29817 3.45912 4.83272 3.1734 5.41467 3.05764C5.99661 2.94189 6.59981 3.0013 7.14799 3.22836C7.69617 3.45542 8.1647 3.83994 8.49434 4.33329C8.82399 4.82664 8.99994 5.40666 8.99994 6C8.99914 6.79541 8.68282 7.55801 8.12038 8.12044C7.55794 8.68288 6.79534 8.99921 5.99994 9Z" fill="#1E1E1E"/>
<path d="M6 7.99999C7.10456 7.99999 7.99999 7.10456 7.99999 6C7.99999 4.89543 7.10456 4 6 4C4.89543 4 4 4.89543 4 6C4 7.10456 4.89543 7.99999 6 7.99999Z" fill="#1E1E1E"/>
</g>
<defs>
<clipPath id="clip0_3145_13228">
<rect width="12" height="12" fill="white"/>
</clipPath>
</defs>
</svg>