<svg xmlns="http://www.w3.org/2000/svg" width="10" height="11" viewBox="0 0 10 11" fill="none">
<path fill-rule="evenodd" clip-rule="evenodd" d="M5.14648 0.310748V2C5.14648 3.53029 6.38703 4.77083 7.91732 4.77083H9.60657C9.64663 4.94291 9.66732 5.1203 9.66732 5.29983V8.41667C9.66732 9.70533 8.62265 10.75 7.33398 10.75H2.66732C1.37865 10.75 0.333984 9.70533 0.333984 8.41667V2.58333C0.333984 1.29467 1.37865 0.25 2.66732 0.25H4.61749C4.79701 0.25 4.97441 0.27069 5.14648 0.310748ZM6.02148 0.71966V2C6.02148 3.04704 6.87028 3.89583 7.91732 3.89583H9.19766C9.1326 3.80947 9.06124 3.72726 8.9839 3.64992L6.2674 0.933417C6.19006 0.856075 6.10785 0.784723 6.02148 0.71966ZM2.22982 5.5C2.22982 5.25838 2.42569 5.0625 2.66732 5.0625H5.00065C5.24228 5.0625 5.43815 5.25838 5.43815 5.5C5.43815 5.74162 5.24228 5.9375 5.00065 5.9375H2.66732C2.42569 5.9375 2.22982 5.74162 2.22982 5.5ZM2.66732 7.39583C2.42569 7.39583 2.22982 7.59171 2.22982 7.83333C2.22982 8.07496 2.42569 8.27083 2.66732 8.27083H7.33398C7.57561 8.27083 7.77148 8.07496 7.77148 7.83333C7.77148 7.59171 7.57561 7.39583 7.33398 7.39583H2.66732Z" fill="white"/>
</svg>