<svg xmlns="http://www.w3.org/2000/svg" width="22" height="24" viewBox="0 0 22 24" fill="none">
<path d="M12.9995 24C12.7831 24 12.5726 23.9298 12.3995 23.8L8.39949 20.8C8.2753 20.7069 8.17449 20.5861 8.10507 20.4472C8.03564 20.3084 7.99949 20.1552 7.99949 20V14.38L0.983492 6.487C0.485213 5.92488 0.159872 5.23082 0.0465722 4.48823C-0.0667272 3.74565 0.0368364 2.98615 0.344816 2.30101C0.652795 1.61588 1.15208 1.03426 1.78267 0.626066C2.41326 0.217873 3.14832 0.000474419 3.89949 0L18.0995 0C18.8506 0.000881051 19.5855 0.218639 20.2158 0.627107C20.8461 1.03557 21.3451 1.61737 21.6528 2.30259C21.9604 2.9878 22.0637 3.74727 21.9501 4.48975C21.8365 5.23222 21.5109 5.9261 21.0125 6.488L13.9995 14.38V23C13.9995 23.2652 13.8941 23.5196 13.7066 23.7071C13.5191 23.8946 13.2647 24 12.9995 24Z" fill="#374957"/>
</svg>