<svg xmlns="http://www.w3.org/2000/svg" width="19" height="20" viewBox="0 0 19 20" fill="none">
<path fill-rule="evenodd" clip-rule="evenodd" d="M7.52077 3.6413C7.1913 4.4717 6.92315 5.48039 6.74195 6.61279C7.61864 6.53249 8.5449 6.48974 9.50067 6.48974C10.4564 6.48974 11.3827 6.53249 12.2594 6.61279C12.0782 5.48039 11.81 4.4717 11.4806 3.6413C11.1639 2.84316 10.8042 2.24437 10.4405 1.85661C10.0782 1.47033 9.76032 1.34059 9.50067 1.34059C9.24102 1.34059 8.92319 1.47033 8.56084 1.85661C8.1971 2.24437 7.83745 2.84316 7.52077 3.6413ZM6.22746 3.11975C5.81636 4.15588 5.50092 5.40402 5.30759 6.78386C4.35591 6.92536 3.48742 7.11416 2.73416 7.34198C1.8577 7.60707 1.09768 7.93666 0.541234 8.33456C0.470933 8.38483 0.401544 8.43796 0.334026 8.49397C0.948236 4.66644 3.8642 1.61645 7.60398 0.833986C7.58542 0.853016 7.56703 0.872256 7.54879 0.891696C7.02374 1.45143 6.58298 2.22369 6.22746 3.11975ZM11.3974 0.833984C11.4159 0.853015 11.4343 0.872256 11.4525 0.891696C11.9776 1.45143 12.4184 2.22369 12.7739 3.11975C13.185 4.15588 13.5004 5.40402 13.6937 6.78386C14.6454 6.92536 15.5139 7.11416 16.2672 7.34198C17.1436 7.60707 17.9037 7.93666 18.4601 8.33456C18.5304 8.38483 18.5998 8.43796 18.6673 8.49398C18.0531 4.66644 15.1371 1.61645 11.3974 0.833984ZM18.6674 11.507C18.5998 11.5631 18.5304 11.6162 18.4601 11.6665C17.9037 12.0644 17.1436 12.394 16.2672 12.6591C15.5139 12.8869 14.6454 13.0757 13.6937 13.2172C13.5004 14.597 13.185 15.8452 12.7739 16.8813C12.4184 17.7774 11.9776 18.5496 11.4525 19.1094C11.4342 19.1289 11.4157 19.1482 11.3971 19.1674C15.1371 18.385 18.0532 15.3348 18.6674 11.507ZM7.60425 19.1673C7.58561 19.1482 7.56712 19.1289 7.54879 19.1094C7.02374 18.5496 6.58298 17.7774 6.22746 16.8813C5.81636 15.8452 5.50092 14.597 5.30759 13.2172C4.35591 13.0757 3.48742 12.8869 2.73416 12.6591C1.8577 12.394 1.09768 12.0644 0.541233 11.6665C0.470919 11.6162 0.401515 11.5631 0.333984 11.507C0.948119 15.3348 3.86425 18.385 7.60425 19.1673ZM3.13442 11.314C3.72519 11.4927 4.40493 11.6476 5.15412 11.7718C5.11171 11.196 5.08969 10.6039 5.08969 10.0005C5.08969 9.39712 5.11171 8.80504 5.15412 8.22921C4.40493 8.3535 3.72519 8.50839 3.13442 8.68707C2.33039 8.93025 1.73046 9.20586 1.34709 9.48C0.945629 9.76708 0.910872 9.95315 0.910872 10.0005C0.910872 10.0479 0.945629 10.234 1.34709 10.521C1.73046 10.7952 2.33039 11.0708 3.13442 11.314ZM6.48263 10.0005C6.48263 10.6757 6.51183 11.3315 6.56675 11.9604C7.48242 12.055 8.46927 12.107 9.50067 12.107C10.5321 12.107 11.5189 12.055 12.4346 11.9604C12.4895 11.3315 12.5187 10.6757 12.5187 10.0005C12.5187 9.32532 12.4895 8.66957 12.4346 8.0407C11.5189 7.94604 10.5321 7.89406 9.50067 7.89406C8.46927 7.89406 7.48242 7.94604 6.56675 8.0407C6.51183 8.66957 6.48263 9.32532 6.48263 10.0005ZM7.52077 16.3597C7.1913 15.5294 6.92315 14.5207 6.74195 13.3883C7.61864 13.4686 8.5449 13.5113 9.50067 13.5113C10.4564 13.5113 11.3827 13.4686 12.2594 13.3883C12.0782 14.5207 11.81 15.5294 11.4806 16.3597C11.1639 17.1579 10.8042 17.7567 10.4405 18.1444C10.0782 18.5307 9.76032 18.6605 9.50067 18.6605C9.24102 18.6605 8.92319 18.5307 8.56084 18.1444C8.1971 17.7567 7.83745 17.1579 7.52077 16.3597ZM15.8669 11.314C15.2761 11.4927 14.5964 11.6476 13.8472 11.7718C13.8896 11.196 13.9116 10.6039 13.9116 10.0005C13.9116 9.39712 13.8896 8.80504 13.8472 8.22921C14.5964 8.3535 15.2761 8.50839 15.8669 8.68707C16.6709 8.93025 17.2709 9.20586 17.6542 9.48C18.0557 9.76708 18.0905 9.95315 18.0905 10.0005C18.0905 10.0479 18.0557 10.234 17.6542 10.521C17.2709 10.7952 16.6709 11.0708 15.8669 11.314Z" fill="#28303F"/>
</svg>