<svg xmlns="http://www.w3.org/2000/svg" width="24" height="25" viewBox="0 0 24 25" fill="none">
<path d="M3 18.6035V12.6035C3 10.2166 3.94821 7.92738 5.63604 6.23955C7.32387 4.55173 9.61305 3.60352 12 3.60352C14.3869 3.60352 16.6761 4.55173 18.364 6.23955C20.0518 7.92738 21 10.2166 21 12.6035V18.6035" stroke="#FFFFFF" stroke-width="2" stroke-linecap="round" stroke-linejoin="round"/>
<path d="M21 19.6035C21 20.1339 20.7893 20.6427 20.4142 21.0177C20.0391 21.3928 19.5304 21.6035 19 21.6035H18C17.4696 21.6035 16.9609 21.3928 16.5858 21.0177C16.2107 20.6427 16 20.1339 16 19.6035V16.6035C16 16.0731 16.2107 15.5644 16.5858 15.1893C16.9609 14.8142 17.4696 14.6035 18 14.6035H21V19.6035ZM3 19.6035C3 20.1339 3.21071 20.6427 3.58579 21.0177C3.96086 21.3928 4.46957 21.6035 5 21.6035H6C6.53043 21.6035 7.03914 21.3928 7.41421 21.0177C7.78929 20.6427 8 20.1339 8 19.6035V16.6035C8 16.0731 7.78929 15.5644 7.41421 15.1893C7.03914 14.8142 6.53043 14.6035 6 14.6035H3V19.6035Z" stroke="#FFFFFF" stroke-width="2" stroke-linecap="round" stroke-linejoin="round"/>
</svg>