<svg xmlns="http://www.w3.org/2000/svg" width="14" height="14" viewBox="0 0 14 14" fill="none">
<path d="M1 2.2C1 1.53726 1.53726 1 2.2 1H4.6C5.26274 1 5.8 1.53726 5.8 2.2V4.6C5.8 5.26274 5.26274 5.8 4.6 5.8H2.2C1.53726 5.8 1 5.26274 1 4.6V2.2Z" stroke="#116ACC" stroke-width="1.5"/>
<path d="M13 3.4C13 4.72548 11.9255 5.8 10.6 5.8C9.27452 5.8 8.2 4.72548 8.2 3.4C8.2 2.07452 9.27452 1 10.6 1C11.9255 1 13 2.07452 13 3.4Z" stroke="#116ACC" stroke-width="1.5"/>
<path d="M5.8 10.6C5.8 11.9255 4.72548 13 3.4 13C2.07452 13 1 11.9255 1 10.6C1 9.27452 2.07452 8.2 3.4 8.2C4.72548 8.2 5.8 9.27452 5.8 10.6Z" stroke="#116ACC" stroke-width="1.5"/>
<path d="M8.2 9.4C8.2 8.73726 8.73726 8.2 9.4 8.2H11.8C12.4627 8.2 13 8.73726 13 9.4V11.8C13 12.4627 12.4627 13 11.8 13H9.4C8.73726 13 8.2 12.4627 8.2 11.8V9.4Z" stroke="#116ACC" stroke-width="1.5"/>
</svg>