<svg xmlns="http://www.w3.org/2000/svg" width="20" height="21" viewBox="0 0 20 21" fill="none">
<path d="M0 5.05052C0 2.59952 2.03024 0.603516 4.52453 0.603516H9.48564C11.9748 0.603516 14 2.59352 14 5.04052V16.1565C14 18.6085 11.9698 20.6035 9.47445 20.6035H4.51537C2.02515 20.6035 0 18.6135 0 16.1665V15.2265V5.05052Z" fill="#808080"/>
<path d="M19.7792 10.0576L16.9334 7.14858C16.6393 6.84858 16.166 6.84858 15.8728 7.15058C15.5807 7.45258 15.5816 7.93958 15.8748 8.23958L17.434 9.83258H15.9391H7.54875C7.13483 9.83258 6.79883 10.1776 6.79883 10.6026C6.79883 11.0286 7.13483 11.3726 7.54875 11.3726H17.434L15.8748 12.9656C15.5816 13.2656 15.5807 13.7526 15.8728 14.0546C16.0199 14.2056 16.2118 14.2816 16.4046 14.2816C16.5955 14.2816 16.7873 14.2056 16.9334 14.0566L19.7792 11.1486C19.9204 11.0036 20.0003 10.8076 20.0003 10.6026C20.0003 10.3986 19.9204 10.2026 19.7792 10.0576Z" fill="#808080"/>
</svg>