<svg width="30" height="30" viewBox="0 0 30 30" fill="none" xmlns="http://www.w3.org/2000/svg">
<path fill-rule="evenodd" clip-rule="evenodd" d="M4.20771 5.49182C3.85259 5.13669 3.85259 4.56092 4.20771 4.2058C4.56284 3.85067 5.13861 3.85067 5.49373 4.2058L24.8933 23.6053C25.2484 23.9604 25.2484 24.5362 24.8933 24.8913C24.5381 25.2465 23.9624 25.2465 23.6072 24.8913L20.1799 21.464C18.4712 22.3943 16.5632 23.0359 14.5505 23.0359C9.92429 23.0359 5.85161 19.6466 3.48027 17.1516C2.07428 15.6723 2.07428 13.4248 3.48027 11.9455C4.48641 10.8869 5.79882 9.66734 7.32984 8.61394L4.20771 5.49182ZM11.4167 12.7008C11.0967 13.2423 10.9131 13.874 10.9131 14.5486C10.9131 16.5575 12.5416 18.186 14.5505 18.186C15.2251 18.186 15.8567 18.0024 16.3983 17.6824L11.4167 12.7008ZM14.5505 6.06128C19.1767 6.06128 23.2494 9.45054 25.6207 11.9455C27.0267 13.4248 27.0267 15.6723 25.6207 17.1516C25.0871 17.713 24.4674 18.3197 23.7747 18.9228L11.4135 6.56159C12.4192 6.24625 13.4697 6.06128 14.5505 6.06128Z" fill="#C2C3CB"/>
</svg>
