<svg width="30" height="30" viewBox="0 0 30 30" fill="none" xmlns="http://www.w3.org/2000/svg">
<path fill-rule="evenodd" clip-rule="evenodd" d="M15.2233 3.17773C12.0425 3.17773 9.46405 5.75623 9.46405 8.93697V9.10868C7.19506 9.70484 5.52148 11.77 5.52148 14.2261V20.6192C5.52148 23.5412 7.89025 25.9099 10.8123 25.9099H19.6302C22.5522 25.9099 24.921 23.5412 24.921 20.6192V14.2261C24.921 11.7715 23.2494 9.70731 20.9825 9.10975V8.93697C20.9825 5.75623 18.404 3.17773 15.2233 3.17773ZM19.1638 8.93536C19.1629 6.7598 17.399 4.99644 15.2233 4.99644C13.0475 4.99644 11.2836 6.7598 11.2828 8.93536H19.1638ZM17.6462 17.4235C17.6462 18.7628 16.5605 19.8485 15.2212 19.8485C13.882 19.8485 12.7963 18.7628 12.7963 17.4235C12.7963 16.0843 13.882 14.9986 15.2212 14.9986C16.5605 14.9986 17.6462 16.0843 17.6462 17.4235Z" fill="#C2C3CB"/>
</svg>
