<svg width="30" height="30" viewBox="0 0 30 30" fill="none" xmlns="http://www.w3.org/2000/svg">
<path fill-rule="evenodd" clip-rule="evenodd" d="M7.94949 4.1543C5.27098 4.1543 3.09961 6.32566 3.09961 9.00418V21.1289C3.09961 23.8074 5.27098 25.9788 7.94949 25.9788H22.4991C25.1776 25.9788 27.349 23.8074 27.349 21.1289V9.00418C27.349 6.32566 25.1776 4.1543 22.4991 4.1543H7.94949ZM8.45391 9.45997C8.03604 9.18139 7.47145 9.29431 7.19287 9.71218C6.91429 10.1301 7.0272 10.6946 7.44508 10.9732L12.0297 14.0296C13.9642 15.3193 16.4844 15.3193 18.419 14.0296L23.0036 10.9732C23.4214 10.6946 23.5343 10.1301 23.2558 9.71218C22.9772 9.29431 22.4126 9.18139 21.9947 9.45997L17.4101 12.5164C16.0865 13.3988 14.3621 13.3988 13.0385 12.5164L8.45391 9.45997Z" fill="#C2C3CB"/>
</svg>
