<svg xmlns="http://www.w3.org/2000/svg" width="106" height="89" viewBox="0 0 106 89" fill="none">
<g clip-path="url(#clip0_3145_13401)">
<path d="M79.5088 52.9142C72.2579 52.9142 66.3592 57.9467 66.3592 64.1327C66.3592 70.3187 72.2579 75.3512 79.5088 75.3512C86.7608 75.3512 92.6583 70.3187 92.6583 64.1327C92.6583 57.9467 86.7596 52.9142 79.5088 52.9142ZM79.5088 69.742C75.8828 69.742 72.934 67.2261 72.934 64.1327C72.934 61.0392 75.8828 58.5234 79.5088 58.5234C83.1347 58.5234 86.0836 61.0392 86.0836 64.1327C86.0836 67.2263 83.1347 69.742 79.5088 69.742ZM34.5812 52.9142C27.3304 52.9142 21.4316 57.9467 21.4316 64.1327C21.4316 70.3187 27.3304 75.3512 34.5812 75.3512C41.832 75.3512 47.7308 70.3187 47.7308 64.1327C47.7308 57.9467 41.832 52.9142 34.5812 52.9142ZM34.5812 69.742C30.9553 69.742 28.0064 67.2261 28.0064 64.1327C28.0064 61.0392 30.9553 58.5234 34.5812 58.5234C38.2061 58.5234 41.156 61.0392 41.156 64.1327C41.156 67.2263 38.2071 69.742 34.5812 69.742ZM88.3639 20.8033C88.09 20.3389 87.6702 19.9486 87.1515 19.6759C86.6327 19.4032 86.0354 19.2588 85.4261 19.2588H68.1125V24.868H83.3988L92.3503 40.0578L98.226 37.5373L88.3639 20.8033Z" fill="#E4E4E4" fill-opacity="0.75"/>
<path d="M44.7717 61.4206H69.6463V67.0298H44.7717V61.4206ZM24.7185 61.4206H13.3224C11.5066 61.4206 10.0351 62.6761 10.0351 64.2251C10.0351 65.7743 11.5068 67.0297 13.3224 67.0297H24.7187C26.5345 67.0297 28.006 65.7741 28.006 64.2251C28.006 62.676 26.5343 61.4206 24.7185 61.4206ZM104.35 44.2749L97.8839 37.1698C97.5769 36.832 97.1833 36.5587 96.7333 36.3707C96.2834 36.1827 95.7889 36.0851 95.2879 36.0853H71.3995V16.453C71.3995 14.9038 69.9278 13.6484 68.1122 13.6484H13.3224C11.5066 13.6484 10.0351 14.904 10.0351 16.453C10.0351 18.002 11.5068 19.2575 13.3224 19.2575H64.8247V38.8898C64.8247 40.439 66.2964 41.6944 68.112 41.6944H93.6781L98.4656 46.9558V61.4202H89.3704C87.5546 61.4202 86.0831 62.6758 86.0831 64.2248C86.0831 65.7739 87.5548 67.0293 89.3704 67.0293H101.753C103.569 67.0293 105.04 65.7738 105.04 64.2248V45.9951C105.04 45.3724 104.797 44.7666 104.35 44.2749ZM24.4995 47.2105H9.3774C7.56159 47.2105 6.09011 48.466 6.09011 50.015C6.09011 51.5642 7.56179 52.8196 9.3774 52.8196H24.4993C26.3151 52.8196 27.7866 51.564 27.7866 50.015C27.7868 48.466 26.3151 47.2105 24.4995 47.2105ZM32.0604 36.1788H4.008C2.19238 36.1788 0.720703 37.4344 0.720703 38.9835C0.720703 40.5327 2.19238 41.7881 4.008 41.7881H32.0604C33.8762 41.7881 35.3477 40.5325 35.3477 38.9835C35.3477 37.4346 33.8762 36.1788 32.0604 36.1788Z" fill="#E4E4E4" fill-opacity="0.75"/>
<path d="M37.4296 25.1465H9.37714C7.56132 25.1465 6.08984 26.402 6.08984 27.951C6.08984 29.5002 7.56152 30.7556 9.37714 30.7556H37.4296C39.2454 30.7556 40.7168 29.5 40.7168 27.951C40.717 26.402 39.2454 25.1465 37.4296 25.1465Z" fill="#E4E4E4" fill-opacity="0.75"/>
</g>
<defs>
<clipPath id="clip0_3145_13401">
<rect x="0.720703" width="104.32" height="89" rx="8" fill="white"/>
</clipPath>
</defs>
</svg>