<svg xmlns="http://www.w3.org/2000/svg" width="24" height="25" viewBox="0 0 24 25" fill="none">
<g clip-path="url(#clip0_3278_1946)">
<path d="M19 0.603516H5C3.67392 0.603516 2.40215 1.1303 1.46447 2.06798C0.526784 3.00566 0 4.27743 0 5.60352H0C0 6.39917 0.31607 7.16223 0.87868 7.72484C1.44129 8.28745 2.20435 8.60352 3 8.60352H21C21.7605 8.6128 22.4956 8.32996 23.0538 7.81329C23.612 7.29662 23.9506 6.5855 24 5.82652C24.0294 5.15156 23.9219 4.47763 23.6839 3.84534C23.4459 3.21305 23.0823 2.63549 22.6152 2.14747C22.148 1.65944 21.5868 1.27106 20.9655 1.00571C20.3442 0.740362 19.6756 0.603549 19 0.603516V0.603516Z" fill="#808080"/>
<path d="M22 10.6035H2C1.73478 10.6035 1.48043 10.7089 1.29289 10.8964C1.10536 11.0839 1 11.3383 1 11.6035V19.6035C1.00159 20.9291 1.52888 22.2 2.46622 23.1373C3.40356 24.0746 4.67441 24.6019 6 24.6035H18C19.3256 24.6019 20.5964 24.0746 21.5338 23.1373C22.4711 22.2 22.9984 20.9291 23 19.6035V11.6035C23 11.3383 22.8946 11.0839 22.7071 10.8964C22.5196 10.7089 22.2652 10.6035 22 10.6035ZM15 15.6035H9C8.73478 15.6035 8.48043 15.4982 8.29289 15.3106C8.10536 15.1231 8 14.8687 8 14.6035C8 14.3383 8.10536 14.0839 8.29289 13.8964C8.48043 13.7089 8.73478 13.6035 9 13.6035H15C15.2652 13.6035 15.5196 13.7089 15.7071 13.8964C15.8946 14.0839 16 14.3383 16 14.6035C16 14.8687 15.8946 15.1231 15.7071 15.3106C15.5196 15.4982 15.2652 15.6035 15 15.6035Z" fill="#808080"/>
</g>
<defs>
<clipPath id="clip0_3278_1946">
<rect width="24" height="24" fill="white" transform="translate(0 0.603516)"/>
</clipPath>
</defs>
</svg>