<svg xmlns="http://www.w3.org/2000/svg" width="22" height="23" viewBox="0 0 22 23" fill="none">
  <g clip-path="url(#clip0_3145_12573)">
    <mask id="mask0_3145_12573" style="mask-type:luminance" maskUnits="userSpaceOnUse" x="0" y="0" width="22" height="23">
      <path d="M21.4999 22V1.00006H0.5V22H21.4999Z" fill="white" stroke="white"/>
    </mask>
    <g mask="url(#mask0_3145_12573)">
      <path d="M17.5312 17H18.7773C20.2013 17 21.3554 15.8459 21.3554 14.4219V9.26565C21.3554 7.84167 20.2013 6.68753 18.7773 6.68753H3.22265C1.79867 6.68753 0.644531 7.84167 0.644531 9.26565V14.4219C0.644531 15.8459 1.79867 17 3.22265 17H4.46874" fill="white"/>
      <path d="M17.5312 17H18.7773C20.2013 17 21.3554 15.8459 21.3554 14.4219V9.26565C21.3554 7.84167 20.2013 6.68753 18.7773 6.68753H3.22265C1.79867 6.68753 0.644531 7.84167 0.644531 9.26565V14.4219C0.644531 15.8459 1.79867 17 3.22265 17H4.46874" stroke="#918888" stroke-miterlimit="10" stroke-linecap="round" stroke-linejoin="round"/>
      <path d="M18.5625 13.5625H3.4375H18.5625Z" fill="white"/>
      <path d="M18.5625 13.5625H3.4375" stroke="#918888" stroke-miterlimit="10" stroke-linecap="round" stroke-linejoin="round"/>
      <path d="M5.75781 21.8555H16.2422C16.9541 21.8555 17.5312 21.2783 17.5312 20.5664V13.5625H4.46875V20.5664C4.46875 21.2783 5.0459 21.8555 5.75781 21.8555Z" fill="white" stroke="#918888" stroke-miterlimit="10" stroke-linecap="round" stroke-linejoin="round"/>
      <path d="M12.7187 16.3125H9.28125H12.7187Z" fill="white"/>
      <path d="M12.7187 16.3125H9.28125" stroke="#918888" stroke-miterlimit="10" stroke-linecap="round" stroke-linejoin="round"/>
      <path d="M12.7187 19.0625H9.28125H12.7187Z" fill="white"/>
      <path d="M12.7187 19.0625H9.28125" stroke="#918888" stroke-miterlimit="10" stroke-linecap="round" stroke-linejoin="round"/>
      <path d="M5.49999 9.4375H3.4375H5.49999Z" fill="white"/>
      <path d="M5.49999 9.4375H3.4375" stroke="#918888" stroke-miterlimit="10" stroke-linecap="round" stroke-linejoin="round"/>
      <path d="M7.04687 1.14455H14.9531C16.3769 1.14455 17.5312 2.29881 17.5312 3.72267V6.6875H4.46875V3.72267C4.46875 2.29881 5.62302 1.14455 7.04687 1.14455Z" fill="white" stroke="#918888" stroke-miterlimit="10" stroke-linecap="round" stroke-linejoin="round"/>
    </g>
  </g>
  <defs>
    <clipPath id="clip0_3145_12573">
      <rect width="22" height="22" fill="white" transform="translate(0 0.5)"/>
    </clipPath>
  </defs>
</svg>