<svg xmlns="http://www.w3.org/2000/svg" width="12" height="12" viewBox="0 0 12 12" fill="none">
<g clip-path="url(#clip0_3145_5251)">
<path d="M7.5 9H0V2C0 1.60218 0.158035 1.22064 0.43934 0.93934C0.720644 0.658035 1.10218 0.5 1.5 0.5H6C6.39782 0.5 6.77936 0.658035 7.06066 0.93934C7.34196 1.22064 7.5 1.60218 7.5 2V9ZM8.5 9H12V6.5H8.5V9ZM9.5 2.5H8.5V5.5H12V5C11.9992 4.3372 11.7356 3.70178 11.2669 3.23311C10.7982 2.76444 10.1628 2.50079 9.5 2.5ZM1.529 10C1.51068 10.0821 1.50096 10.1659 1.5 10.25C1.5 10.5815 1.6317 10.8995 1.86612 11.1339C2.10054 11.3683 2.41848 11.5 2.75 11.5C3.08152 11.5 3.39946 11.3683 3.63388 11.1339C3.8683 10.8995 4 10.5815 4 10.25C3.99904 10.1659 3.98932 10.0821 3.971 10H1.529ZM8.529 10C8.51068 10.0821 8.50097 10.1659 8.5 10.25C8.5 10.5815 8.6317 10.8995 8.86612 11.1339C9.10054 11.3683 9.41848 11.5 9.75 11.5C10.0815 11.5 10.3995 11.3683 10.6339 11.1339C10.8683 10.8995 11 10.5815 11 10.25C10.999 10.1659 10.9893 10.0821 10.971 10H8.529Z" fill="#116ACC"/>
</g>
<defs>
<clipPath id="clip0_3145_5251">
<rect width="12" height="12" fill="white"/>
</clipPath>
</defs>
</svg>