<svg xmlns="http://www.w3.org/2000/svg" width="16" height="18" viewBox="0 0 16 18" fill="none">
<path fill-rule="evenodd" clip-rule="evenodd" d="M4.22537 3.55741C3.9813 3.80149 3.9813 4.19722 4.22538 4.44129C4.46946 4.68537 4.86518 4.68537 5.10926 4.44129L7.37562 2.17491V12.3327C7.37562 12.6779 7.65544 12.9577 8.00062 12.9577C8.3458 12.9577 8.62562 12.6779 8.62562 12.3327V2.17489L10.892 4.44129C11.1361 4.68537 11.5319 4.68537 11.7759 4.44129C12.02 4.19721 12.02 3.80148 11.7759 3.55741L8.44256 0.224072C8.32535 0.106862 8.16638 0.0410148 8.00062 0.0410156C7.83486 0.0410164 7.67589 0.106865 7.55868 0.224076L4.22537 3.55741ZM3.28383 6.89029C3.49972 6.62097 3.45641 6.22762 3.18709 6.01172C2.91776 5.79582 2.52441 5.83913 2.30852 6.10846C1.30791 7.35667 0.708984 8.94226 0.708984 10.666C0.708984 14.6931 3.97357 17.9577 8.00065 17.9577C12.0277 17.9577 15.2923 14.6931 15.2923 10.666C15.2923 8.94226 14.6934 7.35667 13.6928 6.10846C13.4769 5.83913 13.0835 5.79582 12.8142 6.01172C12.5449 6.22762 12.5016 6.62097 12.7175 6.89029C13.5467 7.92474 14.0423 9.23666 14.0423 10.666C14.0423 14.0028 11.3374 16.7077 8.00065 16.7077C4.66393 16.7077 1.95898 14.0028 1.95898 10.666C1.95898 9.23666 2.45458 7.92474 3.28383 6.89029Z" fill="white"/>
</svg>